<?xml version="1.0" encoding="utf-8" standalone="no"?>
<!DOCTYPE svg PUBLIC "-//W3C//DTD SVG 1.1//EN"
  "http://www.w3.org/Graphics/SVG/1.1/DTD/svg11.dtd">
<!-- Created with matplotlib (https://matplotlib.org/) -->
<svg height="301.718437pt" version="1.1" viewBox="0 0 499.142812 301.718437" width="499.142812pt" xmlns="http://www.w3.org/2000/svg" xmlns:xlink="http://www.w3.org/1999/xlink">
 <defs>
  <style type="text/css">
*{stroke-linecap:butt;stroke-linejoin:round;}
  </style>
 </defs>
 <g id="figure_1">
  <g id="patch_1">
   <path d="M 0 301.718437 
L 499.142812 301.718437 
L 499.142812 0 
L 0 0 
z
" style="fill:#ffffff;"/>
  </g>
  <g id="axes_1">
   <g id="matplotlib.axis_1">
    <g id="xtick_1">
     <g id="text_1">
      <!-- 0° -->
      <defs>
       <path d="M 51.703125 34.421875 
Q 51.703125 24.515625 49.828125 17.75 
Q 47.953125 10.984375 44.703125 6.8125 
Q 41.453125 2.640625 37.0625 0.828125 
Q 32.671875 -0.984375 27.6875 -0.984375 
Q 22.65625 -0.984375 18.3125 0.828125 
Q 13.96875 2.640625 10.765625 6.78125 
Q 7.5625 10.9375 5.734375 17.703125 
Q 3.90625 24.46875 3.90625 34.421875 
Q 3.90625 44.828125 5.734375 51.640625 
Q 7.5625 58.453125 10.78125 62.5 
Q 14.015625 66.546875 18.40625 68.1875 
Q 22.796875 69.828125 27.984375 69.828125 
Q 32.90625 69.828125 37.21875 68.1875 
Q 41.546875 66.546875 44.765625 62.5 
Q 48 58.453125 49.84375 51.640625 
Q 51.703125 44.828125 51.703125 34.421875 
z
M 42.78125 34.421875 
Q 42.78125 42.625 41.796875 48.0625 
Q 40.828125 53.515625 38.921875 56.765625 
Q 37.015625 60.015625 34.25 61.359375 
Q 31.5 62.703125 27.984375 62.703125 
Q 24.265625 62.703125 21.4375 61.328125 
Q 18.609375 59.96875 16.671875 56.71875 
Q 14.75 53.46875 13.765625 48.015625 
Q 12.796875 42.578125 12.796875 34.421875 
Q 12.796875 26.515625 13.796875 21.09375 
Q 14.796875 15.671875 16.71875 12.375 
Q 18.65625 9.078125 21.4375 7.640625 
Q 24.21875 6.203125 27.78125 6.203125 
Q 31.25 6.203125 34.03125 7.640625 
Q 36.8125 9.078125 38.734375 12.375 
Q 40.671875 15.671875 41.71875 21.09375 
Q 42.78125 26.515625 42.78125 34.421875 
z
" id="LiberationSans-48"/>
       <path d="M 33.984375 55.90625 
Q 33.984375 53.03125 32.875 50.484375 
Q 31.78125 47.953125 29.875 46.0625 
Q 27.984375 44.1875 25.421875 43.09375 
Q 22.859375 42 19.96875 42 
Q 17.09375 42 14.546875 43.09375 
Q 12.015625 44.1875 10.109375 46.0625 
Q 8.203125 47.953125 7.078125 50.484375 
Q 5.953125 53.03125 5.953125 55.90625 
Q 5.953125 58.84375 7.078125 61.375 
Q 8.203125 63.921875 10.109375 65.796875 
Q 12.015625 67.671875 14.546875 68.75 
Q 17.09375 69.828125 19.96875 69.828125 
Q 22.859375 69.828125 25.421875 68.75 
Q 27.984375 67.671875 29.875 65.796875 
Q 31.78125 63.921875 32.875 61.375 
Q 33.984375 58.84375 33.984375 55.90625 
z
M 28.65625 55.90625 
Q 28.65625 57.71875 28 59.328125 
Q 27.34375 60.9375 26.171875 62.125 
Q 25 63.328125 23.40625 64.015625 
Q 21.828125 64.703125 19.96875 64.703125 
Q 18.171875 64.703125 16.578125 64.015625 
Q 14.984375 63.328125 13.8125 62.125 
Q 12.640625 60.9375 11.953125 59.328125 
Q 11.28125 57.71875 11.28125 55.90625 
Q 11.28125 54.109375 11.953125 52.515625 
Q 12.640625 50.921875 13.8125 49.71875 
Q 14.984375 48.53125 16.578125 47.828125 
Q 18.171875 47.125 19.96875 47.125 
Q 21.828125 47.125 23.40625 47.828125 
Q 25 48.53125 26.171875 49.71875 
Q 27.34375 50.921875 28 52.515625 
Q 28.65625 54.109375 28.65625 55.90625 
z
" id="LiberationSans-176"/>
      </defs>
      <g style="fill:#262626;" transform="translate(152.029219 16.620938)scale(0.13 -0.13)">
       <use xlink:href="#LiberationSans-48"/>
       <use x="55.615234" xlink:href="#LiberationSans-176"/>
      </g>
     </g>
    </g>
    <g id="xtick_2">
     <g id="text_2">
      <!-- 45° -->
      <defs>
       <path d="M 43.015625 15.578125 
L 43.015625 0 
L 34.71875 0 
L 34.71875 15.578125 
L 2.296875 15.578125 
L 2.296875 22.40625 
L 33.796875 68.796875 
L 43.015625 68.796875 
L 43.015625 22.515625 
L 52.6875 22.515625 
L 52.6875 15.578125 
z
M 34.71875 58.890625 
Q 34.625 58.640625 34.234375 57.9375 
Q 33.84375 57.234375 33.34375 56.34375 
Q 32.859375 55.46875 32.34375 54.5625 
Q 31.84375 53.65625 31.453125 53.078125 
L 13.8125 27.09375 
Q 13.578125 26.703125 13.109375 26.0625 
Q 12.640625 25.4375 12.15625 24.78125 
Q 11.671875 24.125 11.171875 23.484375 
Q 10.6875 22.859375 10.40625 22.515625 
L 34.71875 22.515625 
z
" id="LiberationSans-52"/>
       <path d="M 51.421875 22.40625 
Q 51.421875 17.234375 49.859375 12.9375 
Q 48.296875 8.640625 45.21875 5.53125 
Q 42.140625 2.4375 37.578125 0.71875 
Q 33.015625 -0.984375 27 -0.984375 
Q 21.578125 -0.984375 17.546875 0.28125 
Q 13.53125 1.5625 10.734375 3.78125 
Q 7.953125 6 6.3125 8.984375 
Q 4.6875 11.96875 4 15.375 
L 12.890625 16.40625 
Q 13.421875 14.453125 14.390625 12.625 
Q 15.375 10.796875 17.0625 9.34375 
Q 18.75 7.90625 21.21875 7.046875 
Q 23.6875 6.203125 27.203125 6.203125 
Q 30.609375 6.203125 33.390625 7.25 
Q 36.1875 8.296875 38.15625 10.34375 
Q 40.140625 12.40625 41.203125 15.375 
Q 42.28125 18.359375 42.28125 22.21875 
Q 42.28125 25.390625 41.25 28.046875 
Q 40.234375 30.71875 38.328125 32.640625 
Q 36.421875 34.578125 33.65625 35.640625 
Q 30.90625 36.71875 27.390625 36.71875 
Q 25.203125 36.71875 23.34375 36.328125 
Q 21.484375 35.9375 19.890625 35.25 
Q 18.3125 34.578125 17.015625 33.671875 
Q 15.71875 32.765625 14.59375 31.78125 
L 6 31.78125 
L 8.296875 68.796875 
L 47.40625 68.796875 
L 47.40625 61.328125 
L 16.3125 61.328125 
L 14.984375 39.5 
Q 17.328125 41.3125 20.84375 42.59375 
Q 24.359375 43.890625 29.203125 43.890625 
Q 34.328125 43.890625 38.421875 42.328125 
Q 42.53125 40.765625 45.40625 37.90625 
Q 48.296875 35.0625 49.859375 31.109375 
Q 51.421875 27.15625 51.421875 22.40625 
z
" id="LiberationSans-53"/>
      </defs>
      <g style="fill:#262626;" transform="translate(245.712502 56.923044)scale(0.13 -0.13)">
       <use xlink:href="#LiberationSans-52"/>
       <use x="55.615234" xlink:href="#LiberationSans-53"/>
       <use x="111.230469" xlink:href="#LiberationSans-176"/>
      </g>
     </g>
    </g>
    <g id="xtick_3">
     <g id="text_3">
      <!-- 90° -->
      <defs>
       <path d="M 50.875 35.796875 
Q 50.875 26.609375 49.140625 19.703125 
Q 47.40625 12.796875 44.1875 8.203125 
Q 40.96875 3.609375 36.34375 1.3125 
Q 31.734375 -0.984375 25.984375 -0.984375 
Q 22.015625 -0.984375 18.84375 -0.171875 
Q 15.671875 0.640625 13.171875 2.34375 
Q 10.6875 4.046875 8.921875 6.78125 
Q 7.171875 9.515625 6.109375 13.375 
L 14.5 14.703125 
Q 15.875 10.25 18.78125 8.171875 
Q 21.6875 6.109375 26.125 6.109375 
Q 29.6875 6.109375 32.640625 7.78125 
Q 35.59375 9.46875 37.671875 12.84375 
Q 39.75 16.21875 40.921875 21.296875 
Q 42.09375 26.375 42.1875 33.203125 
Q 41.15625 30.90625 39.375 29.09375 
Q 37.59375 27.296875 35.328125 26.046875 
Q 33.0625 24.8125 30.421875 24.140625 
Q 27.78125 23.484375 25.09375 23.484375 
Q 20.40625 23.484375 16.625 25.171875 
Q 12.84375 26.859375 10.203125 29.875 
Q 7.5625 32.90625 6.125 37.171875 
Q 4.6875 41.453125 4.6875 46.6875 
Q 4.6875 52 6.21875 56.296875 
Q 7.765625 60.59375 10.6875 63.59375 
Q 13.625 66.609375 17.890625 68.21875 
Q 22.171875 69.828125 27.59375 69.828125 
Q 39.0625 69.828125 44.96875 61.328125 
Q 50.875 52.828125 50.875 35.796875 
z
M 41.3125 44.28125 
Q 41.3125 48.09375 40.40625 51.453125 
Q 39.5 54.828125 37.71875 57.3125 
Q 35.9375 59.8125 33.328125 61.25 
Q 30.71875 62.703125 27.296875 62.703125 
Q 24.125 62.703125 21.578125 61.578125 
Q 19.046875 60.453125 17.28125 58.375 
Q 15.53125 56.296875 14.578125 53.3125 
Q 13.625 50.34375 13.625 46.6875 
Q 13.625 43.21875 14.46875 40.234375 
Q 15.328125 37.25 17.03125 35.078125 
Q 18.75 32.90625 21.28125 31.65625 
Q 23.828125 30.421875 27.203125 30.421875 
Q 29.640625 30.421875 32.15625 31.25 
Q 34.671875 32.078125 36.6875 33.78125 
Q 38.71875 35.5 40.015625 38.109375 
Q 41.3125 40.71875 41.3125 44.28125 
z
" id="LiberationSans-57"/>
      </defs>
      <g style="fill:#262626;" transform="translate(286.014609 154.220938)scale(0.13 -0.13)">
       <use xlink:href="#LiberationSans-57"/>
       <use x="55.615234" xlink:href="#LiberationSans-48"/>
       <use x="111.230469" xlink:href="#LiberationSans-176"/>
      </g>
     </g>
    </g>
    <g id="xtick_4">
     <g id="text_4">
      <!-- 135° -->
      <defs>
       <path d="M 7.625 0 
L 7.625 7.46875 
L 25.140625 7.46875 
L 25.140625 60.40625 
L 9.625 49.3125 
L 9.625 57.625 
L 25.875 68.796875 
L 33.984375 68.796875 
L 33.984375 7.46875 
L 50.734375 7.46875 
L 50.734375 0 
z
" id="LiberationSans-49"/>
       <path d="M 51.21875 19 
Q 51.21875 14.265625 49.671875 10.546875 
Q 48.140625 6.84375 45.1875 4.265625 
Q 42.234375 1.703125 37.859375 0.359375 
Q 33.5 -0.984375 27.875 -0.984375 
Q 21.484375 -0.984375 17.109375 0.609375 
Q 12.75 2.203125 9.90625 4.8125 
Q 7.078125 7.421875 5.65625 10.765625 
Q 4.25 14.109375 3.8125 17.671875 
L 12.890625 18.5 
Q 13.28125 15.765625 14.328125 13.515625 
Q 15.375 11.28125 17.1875 9.671875 
Q 19 8.0625 21.625 7.171875 
Q 24.265625 6.296875 27.875 6.296875 
Q 34.515625 6.296875 38.296875 9.5625 
Q 42.09375 12.84375 42.09375 19.28125 
Q 42.09375 23.09375 40.40625 25.40625 
Q 38.71875 27.734375 36.203125 29.03125 
Q 33.6875 30.328125 30.734375 30.765625 
Q 27.78125 31.203125 25.296875 31.203125 
L 20.3125 31.203125 
L 20.3125 38.8125 
L 25.09375 38.8125 
Q 27.59375 38.8125 30.265625 39.328125 
Q 32.953125 39.84375 35.171875 41.1875 
Q 37.40625 42.53125 38.84375 44.828125 
Q 40.28125 47.125 40.28125 50.6875 
Q 40.28125 56.203125 37.03125 59.390625 
Q 33.796875 62.59375 27.390625 62.59375 
Q 21.578125 62.59375 17.984375 59.609375 
Q 14.40625 56.640625 13.8125 51.21875 
L 4.984375 51.90625 
Q 5.515625 56.453125 7.46875 59.8125 
Q 9.421875 63.1875 12.421875 65.40625 
Q 15.4375 67.625 19.28125 68.71875 
Q 23.140625 69.828125 27.484375 69.828125 
Q 33.25 69.828125 37.390625 68.375 
Q 41.546875 66.9375 44.1875 64.46875 
Q 46.828125 62.015625 48.0625 58.6875 
Q 49.3125 55.375 49.3125 51.609375 
Q 49.3125 48.578125 48.484375 45.9375 
Q 47.65625 43.3125 45.890625 41.203125 
Q 44.140625 39.109375 41.421875 37.59375 
Q 38.71875 36.078125 34.90625 35.296875 
L 34.90625 35.109375 
Q 39.0625 34.671875 42.140625 33.21875 
Q 45.21875 31.78125 47.21875 29.625 
Q 49.21875 27.484375 50.21875 24.75 
Q 51.21875 22.015625 51.21875 19 
z
" id="LiberationSans-51"/>
      </defs>
      <g style="fill:#262626;" transform="translate(242.097893 251.518831)scale(0.13 -0.13)">
       <use xlink:href="#LiberationSans-49"/>
       <use x="55.615234" xlink:href="#LiberationSans-51"/>
       <use x="111.230469" xlink:href="#LiberationSans-53"/>
       <use x="166.845703" xlink:href="#LiberationSans-176"/>
      </g>
     </g>
    </g>
    <g id="xtick_5">
     <g id="text_5">
      <!-- 180° -->
      <defs>
       <path d="M 51.265625 19.1875 
Q 51.265625 14.796875 49.875 11.109375 
Q 48.484375 7.421875 45.625 4.734375 
Q 42.78125 2.046875 38.328125 0.53125 
Q 33.890625 -0.984375 27.828125 -0.984375 
Q 21.78125 -0.984375 17.359375 0.53125 
Q 12.9375 2.046875 10.03125 4.703125 
Q 7.125 7.375 5.734375 11.0625 
Q 4.34375 14.75 4.34375 19.09375 
Q 4.34375 22.859375 5.484375 25.78125 
Q 6.640625 28.71875 8.5625 30.828125 
Q 10.5 32.953125 12.96875 34.25 
Q 15.4375 35.546875 18.0625 35.984375 
L 18.0625 36.1875 
Q 15.1875 36.859375 12.90625 38.375 
Q 10.640625 39.890625 9.09375 42.015625 
Q 7.5625 44.140625 6.75 46.71875 
Q 5.953125 49.3125 5.953125 52.203125 
Q 5.953125 55.8125 7.34375 59 
Q 8.734375 62.203125 11.46875 64.625 
Q 14.203125 67.046875 18.25 68.4375 
Q 22.3125 69.828125 27.640625 69.828125 
Q 33.25 69.828125 37.375 68.40625 
Q 41.5 67 44.203125 64.578125 
Q 46.921875 62.15625 48.234375 58.9375 
Q 49.5625 55.71875 49.5625 52.09375 
Q 49.5625 49.265625 48.75 46.671875 
Q 47.953125 44.09375 46.40625 41.96875 
Q 44.875 39.84375 42.59375 38.34375 
Q 40.328125 36.859375 37.359375 36.28125 
L 37.359375 36.078125 
Q 40.328125 35.59375 42.859375 34.296875 
Q 45.40625 33.015625 47.265625 30.890625 
Q 49.125 28.765625 50.1875 25.828125 
Q 51.265625 22.90625 51.265625 19.1875 
z
M 40.4375 51.609375 
Q 40.4375 54.203125 39.765625 56.34375 
Q 39.109375 58.5 37.59375 60.03125 
Q 36.078125 61.578125 33.640625 62.421875 
Q 31.203125 63.28125 27.640625 63.28125 
Q 24.171875 63.28125 21.78125 62.421875 
Q 19.390625 61.578125 17.84375 60.03125 
Q 16.3125 58.5 15.625 56.34375 
Q 14.9375 54.203125 14.9375 51.609375 
Q 14.9375 49.5625 15.46875 47.40625 
Q 16.015625 45.265625 17.421875 43.5 
Q 18.84375 41.75 21.328125 40.625 
Q 23.828125 39.5 27.734375 39.5 
Q 31.890625 39.5 34.40625 40.625 
Q 36.921875 41.75 38.25 43.5 
Q 39.59375 45.265625 40.015625 47.40625 
Q 40.4375 49.5625 40.4375 51.609375 
z
M 42.140625 20.015625 
Q 42.140625 22.515625 41.453125 24.828125 
Q 40.765625 27.15625 39.109375 28.9375 
Q 37.453125 30.71875 34.640625 31.8125 
Q 31.84375 32.90625 27.640625 32.90625 
Q 23.78125 32.90625 21.0625 31.8125 
Q 18.359375 30.71875 16.671875 28.90625 
Q 14.984375 27.09375 14.203125 24.71875 
Q 13.421875 22.359375 13.421875 19.828125 
Q 13.421875 16.65625 14.203125 14.03125 
Q 14.984375 11.421875 16.6875 9.546875 
Q 18.40625 7.671875 21.1875 6.640625 
Q 23.96875 5.609375 27.9375 5.609375 
Q 31.9375 5.609375 34.671875 6.640625 
Q 37.40625 7.671875 39.0625 9.546875 
Q 40.71875 11.421875 41.421875 14.078125 
Q 42.140625 16.75 42.140625 20.015625 
z
" id="LiberationSans-56"/>
      </defs>
      <g style="fill:#262626;" transform="translate(144.8 291.820938)scale(0.13 -0.13)">
       <use xlink:href="#LiberationSans-49"/>
       <use x="55.615234" xlink:href="#LiberationSans-56"/>
       <use x="111.230469" xlink:href="#LiberationSans-48"/>
       <use x="166.845703" xlink:href="#LiberationSans-176"/>
      </g>
     </g>
    </g>
    <g id="xtick_6">
     <g id="text_6">
      <!-- 225° -->
      <defs>
       <path d="M 5.03125 0 
L 5.03125 6.203125 
Q 7.515625 11.921875 11.109375 16.28125 
Q 14.703125 20.65625 18.65625 24.1875 
Q 22.609375 27.734375 26.484375 30.765625 
Q 30.375 33.796875 33.5 36.8125 
Q 36.625 39.84375 38.546875 43.15625 
Q 40.484375 46.484375 40.484375 50.6875 
Q 40.484375 53.609375 39.59375 55.828125 
Q 38.71875 58.0625 37.0625 59.5625 
Q 35.40625 61.078125 33.078125 61.828125 
Q 30.765625 62.59375 27.9375 62.59375 
Q 25.296875 62.59375 22.96875 61.859375 
Q 20.65625 61.140625 18.84375 59.671875 
Q 17.046875 58.203125 15.890625 56.03125 
Q 14.75 53.859375 14.40625 50.984375 
L 5.421875 51.8125 
Q 5.859375 55.515625 7.46875 58.78125 
Q 9.078125 62.0625 11.90625 64.53125 
Q 14.75 67 18.71875 68.40625 
Q 22.703125 69.828125 27.9375 69.828125 
Q 33.0625 69.828125 37.0625 68.609375 
Q 41.0625 67.390625 43.8125 64.984375 
Q 46.578125 62.59375 48.046875 59.078125 
Q 49.515625 55.5625 49.515625 50.984375 
Q 49.515625 47.515625 48.265625 44.390625 
Q 47.015625 41.265625 44.9375 38.421875 
Q 42.875 35.59375 40.140625 32.953125 
Q 37.40625 30.328125 34.421875 27.8125 
Q 31.453125 25.296875 28.421875 22.828125 
Q 25.390625 20.359375 22.71875 17.859375 
Q 20.0625 15.375 17.96875 12.8125 
Q 15.875 10.25 14.703125 7.46875 
L 50.59375 7.46875 
L 50.59375 0 
z
" id="LiberationSans-50"/>
      </defs>
      <g style="fill:#262626;" transform="translate(47.502107 251.518831)scale(0.13 -0.13)">
       <use xlink:href="#LiberationSans-50"/>
       <use x="55.615234" xlink:href="#LiberationSans-50"/>
       <use x="111.230469" xlink:href="#LiberationSans-53"/>
       <use x="166.845703" xlink:href="#LiberationSans-176"/>
      </g>
     </g>
    </g>
    <g id="xtick_7">
     <g id="text_7">
      <!-- 270° -->
      <defs>
       <path d="M 50.59375 61.671875 
Q 45.40625 53.765625 41.0625 46.453125 
Q 36.71875 39.15625 33.59375 31.75 
Q 30.46875 24.359375 28.734375 16.578125 
Q 27 8.796875 27 0 
L 17.828125 0 
Q 17.828125 8.25 19.78125 16.1875 
Q 21.734375 24.125 25.046875 31.765625 
Q 28.375 39.40625 32.765625 46.78125 
Q 37.15625 54.15625 42.09375 61.328125 
L 5.125 61.328125 
L 5.125 68.796875 
L 50.59375 68.796875 
z
" id="LiberationSans-55"/>
      </defs>
      <g style="fill:#262626;" transform="translate(7.2 154.220938)scale(0.13 -0.13)">
       <use xlink:href="#LiberationSans-50"/>
       <use x="55.615234" xlink:href="#LiberationSans-55"/>
       <use x="111.230469" xlink:href="#LiberationSans-48"/>
       <use x="166.845703" xlink:href="#LiberationSans-176"/>
      </g>
     </g>
    </g>
    <g id="xtick_8">
     <g id="text_8">
      <!-- 315° -->
      <g style="fill:#262626;" transform="translate(47.502107 56.923044)scale(0.13 -0.13)">
       <use xlink:href="#LiberationSans-51"/>
       <use x="55.615234" xlink:href="#LiberationSans-49"/>
       <use x="111.230469" xlink:href="#LiberationSans-53"/>
       <use x="166.845703" xlink:href="#LiberationSans-176"/>
      </g>
     </g>
    </g>
   </g>
   <g id="matplotlib.axis_2"/>
  </g>
  <g id="axes_2">
   <g id="patch_2">
    <path d="M 158.242813 272.359219 
C 190.464989 272.359219 221.371767 259.557212 244.156286 236.772693 
C 266.940806 213.988173 279.742813 183.081395 279.742813 150.859219 
C 279.742813 118.637042 266.940806 87.730264 244.156286 64.945745 
C 221.371767 42.161225 190.464989 29.359219 158.242813 29.359219 
C 126.020636 29.359219 95.113858 42.161225 72.329339 64.945745 
C 49.544819 87.730264 36.742812 118.637042 36.742812 150.859219 
C 36.742812 183.081395 49.544819 213.988173 72.329339 236.772693 
C 95.113858 259.557212 126.020636 272.359219 158.242813 272.359219 
z
" style="fill:#ffffff;"/>
   </g>
   <g id="matplotlib.axis_3">
    <g id="xtick_9">
     <g id="line2d_1">
      <path clip-path="url(#p67d0aa7644)" d="M 137.144559 270.513361 
L 126.114062 268.034273 
L 115.361749 264.540635 
L 104.980718 260.062695 
L 95.060853 254.639226 
L 85.688044 248.317187 
L 76.943444 241.151315 
L 68.902768 233.203657 
L 61.635636 224.543026 
L 55.204969 215.244409 
L 49.666447 205.388319 
L 45.068024 195.060093 
L 41.449516 184.349157 
L 38.842254 173.348252 
L 37.268811 162.152627 
L 36.742812 150.859219 
L 37.268811 139.565811 
L 38.842254 128.370186 
L 41.449516 117.36928 
L 45.068024 106.658344 
L 49.666447 96.330118 
L 55.204969 86.474028 
L 61.635636 77.175412 
L 68.902768 68.514781 
L 76.943444 60.567122 
L 85.688044 53.401251 
L 95.060853 47.079211 
L 104.980718 41.655742 
L 115.361749 37.177803 
L 126.114062 33.684164 
L 137.144559 31.205077 
" style="fill:none;stroke:#000000;stroke-linecap:round;stroke-opacity:0.25;stroke-width:1.3;"/>
     </g>
    </g>
    <g id="xtick_10">
     <g id="line2d_2">
      <path clip-path="url(#p67d0aa7644)" d="M 137.77144 268.749153 
L 127.304518 265.433262 
L 117.250649 261.209466 
L 107.679109 256.129465 
L 98.653061 250.248768 
L 90.229679 243.626049 
L 82.460313 236.322592 
L 75.390677 228.401818 
L 69.061036 219.92888 
L 63.506404 210.970319 
L 58.756722 201.593783 
L 54.837023 191.867783 
L 51.767584 181.861494 
L 49.564041 171.644585 
L 48.237496 161.287079 
L 47.794579 150.859219 
L 48.237496 140.431359 
L 49.564041 130.073852 
L 51.767584 119.856944 
L 54.837023 109.850654 
L 58.756722 100.124654 
L 63.506404 90.748118 
L 69.061036 81.789558 
L 75.390677 73.31662 
L 82.460313 65.395846 
L 90.229679 58.092389 
L 98.653061 51.469669 
L 107.679109 45.588972 
L 117.250649 40.508972 
L 127.304518 36.285175 
L 137.77144 32.969284 
" style="fill:none;stroke:#000000;stroke-linecap:round;stroke-opacity:0.25;stroke-width:1.3;"/>
     </g>
    </g>
    <g id="xtick_11">
     <g id="line2d_3">
      <path clip-path="url(#p67d0aa7644)" d="M 138.98069 267.110985 
L 129.330794 263.069827 
L 120.17965 258.244059 
L 111.569565 252.695007 
L 103.537083 246.483372 
L 96.113692 239.668996 
L 89.326431 232.310742 
L 83.198427 224.466452 
L 77.749344 216.192955 
L 72.995757 207.54613 
L 68.951474 198.580989 
L 65.627783 189.351781 
L 63.033664 179.912106 
L 61.175942 170.315043 
L 60.059414 160.613274 
L 59.686924 150.859219 
L 60.059414 141.105163 
L 61.175942 131.403394 
L 63.033664 121.806331 
L 65.627783 112.366656 
L 68.951474 103.137448 
L 72.995757 94.172308 
L 77.749344 85.525483 
L 83.198427 77.251986 
L 89.326431 69.407695 
L 96.113692 62.049442 
L 103.537083 55.235066 
L 111.569565 49.02343 
L 120.17965 43.474379 
L 129.330794 38.648611 
L 138.98069 34.607452 
" style="fill:none;stroke:#000000;stroke-linecap:round;stroke-opacity:0.25;stroke-width:1.3;"/>
     </g>
    </g>
    <g id="xtick_12">
     <g id="line2d_4">
      <path clip-path="url(#p67d0aa7644)" d="M 140.716219 265.634432 
L 132.09354 260.980261 
L 124.004952 255.668542 
L 116.468052 249.760418 
L 109.497028 243.313502 
L 103.103372 236.382256 
L 97.296436 229.018368 
L 92.083864 221.27112 
L 87.471911 213.187731 
L 83.465693 204.813675 
L 80.069371 196.192968 
L 77.286285 187.368427 
L 75.119058 178.381914 
L 73.569666 169.274548 
L 72.639488 160.086908 
L 72.329339 150.859219 
L 72.639488 141.631529 
L 73.569666 132.443889 
L 75.119058 123.336524 
L 77.286285 114.350011 
L 80.069371 105.52547 
L 83.465693 96.904762 
L 87.471911 88.530706 
L 92.083864 80.447318 
L 97.296436 72.70007 
L 103.103372 65.336182 
L 109.497028 58.404935 
L 116.468052 51.95802 
L 124.004952 46.049895 
L 132.09354 40.738177 
L 140.716219 36.084005 
" style="fill:none;stroke:#000000;stroke-linecap:round;stroke-opacity:0.25;stroke-width:1.3;"/>
     </g>
    </g>
    <g id="xtick_13">
     <g id="line2d_5">
      <path clip-path="url(#p67d0aa7644)" d="M 142.913506 264.347175 
L 135.48872 259.188752 
L 128.586161 253.493413 
L 122.204409 247.315341 
L 116.341576 240.704129 
L 110.995618 233.705582 
L 106.164537 226.362389 
L 101.846498 218.714689 
L 98.03988 210.800545 
L 94.743306 202.656338 
L 91.955636 194.317104 
L 89.675955 185.816806 
L 87.903556 177.188575 
L 86.637912 168.464915 
L 85.878666 159.677876 
L 85.625606 150.859219 
L 85.878666 142.040562 
L 86.637912 133.253523 
L 87.903556 124.529862 
L 89.675955 115.901632 
L 91.955636 107.401334 
L 94.743306 99.062099 
L 98.03988 90.917893 
L 101.846498 83.003749 
L 106.164537 75.356049 
L 110.995618 68.012856 
L 116.341576 61.014309 
L 122.204409 54.403097 
L 128.586161 48.225024 
L 135.48872 42.529685 
L 142.913506 37.371262 
" style="fill:none;stroke:#000000;stroke-linecap:round;stroke-opacity:0.25;stroke-width:1.3;"/>
     </g>
    </g>
    <g id="xtick_14">
     <g id="line2d_6">
      <path clip-path="url(#p67d0aa7644)" d="M 145.502068 263.270144 
L 139.410378 257.710635 
L 133.787706 251.720849 
L 128.6209 245.344428 
L 123.89874 238.620894 
L 119.611753 231.586535 
L 115.752008 224.2751 
L 112.312927 216.718346 
L 109.289097 208.94647 
L 106.676113 200.988452 
L 104.470433 192.872325 
L 102.669258 184.625393 
L 101.270431 176.274406 
L 100.272356 167.845709 
L 99.673938 159.365356 
L 99.474535 150.859219 
L 99.673938 142.353082 
L 100.272356 133.872729 
L 101.270431 125.444031 
L 102.669258 117.093045 
L 104.470433 108.846113 
L 106.676113 100.729985 
L 109.289097 92.771967 
L 112.312927 85.000092 
L 115.752008 77.443338 
L 119.611753 70.131902 
L 123.89874 63.097543 
L 128.6209 56.374009 
L 133.787706 49.997588 
L 139.410378 44.007802 
L 145.502068 38.448293 
" style="fill:none;stroke:#000000;stroke-linecap:round;stroke-opacity:0.25;stroke-width:1.3;"/>
     </g>
    </g>
    <g id="xtick_15">
     <g id="line2d_7">
      <path clip-path="url(#p67d0aa7644)" d="M 148.407342 262.41867 
L 143.752201 256.555094 
L 139.47893 250.348574 
L 135.570007 243.831501 
L 132.011072 237.033508 
L 128.790387 229.982164 
L 125.898379 222.703484 
L 123.327265 215.222319 
L 121.070749 207.562649 
L 119.123769 199.747802 
L 117.482295 191.800621 
L 116.143165 183.743596 
L 115.103954 175.598956 
L 114.362876 167.388745 
L 113.918705 159.134885 
L 113.770726 150.859219 
L 113.918705 142.583552 
L 114.362876 134.329692 
L 115.103954 126.119482 
L 116.143165 117.974841 
L 117.482295 109.917816 
L 119.123769 101.970636 
L 121.070749 94.155789 
L 123.327265 86.496119 
L 125.898379 79.014954 
L 128.790387 71.736273 
L 132.011072 64.684929 
L 135.570007 57.886937 
L 139.47893 51.369864 
L 143.752201 45.163344 
L 148.407342 39.299767 
" style="fill:none;stroke:#000000;stroke-linecap:round;stroke-opacity:0.25;stroke-width:1.3;"/>
     </g>
    </g>
    <g id="xtick_16">
     <g id="line2d_8">
      <path clip-path="url(#p67d0aa7644)" d="M 151.552052 261.80353 
L 148.408284 255.727266 
L 145.533478 249.372558 
L 142.912087 242.762125 
L 140.531624 235.917504 
L 138.382048 228.859408 
L 136.455281 221.607991 
L 134.744828 214.183028 
L 133.245484 206.604047 
L 131.953094 198.890424 
L 130.864369 191.061445 
L 129.97674 183.136351 
L 129.288247 175.134363 
L 128.797444 167.074696 
L 128.503346 158.976572 
L 128.405376 150.859219 
L 128.503346 142.741865 
L 128.797444 134.643742 
L 129.288247 126.584075 
L 129.97674 118.582086 
L 130.864369 110.656992 
L 131.953094 102.828014 
L 133.245484 95.114391 
L 134.744828 87.53541 
L 136.455281 80.110446 
L 138.382048 72.859029 
L 140.531624 65.800934 
L 142.912087 58.956312 
L 145.533478 52.345879 
L 148.408284 45.991172 
L 151.552052 39.914908 
" style="fill:none;stroke:#000000;stroke-linecap:round;stroke-opacity:0.25;stroke-width:1.3;"/>
     </g>
    </g>
    <g id="xtick_17">
     <g id="line2d_9">
      <path clip-path="url(#p67d0aa7644)" d="M 154.857206 261.431793 
L 153.273378 255.229792 
L 151.828349 248.788825 
L 150.513146 242.12516 
L 149.320637 235.255081 
L 148.245135 228.194966 
L 147.2821 220.961334 
L 146.427904 213.570873 
L 145.679651 206.040449 
L 145.035042 198.387106 
L 144.492262 190.628057 
L 144.049896 182.780668 
L 143.706866 174.86244 
L 143.462381 166.890983 
L 143.3159 158.883991 
L 143.267107 150.859219 
L 143.3159 142.834446 
L 143.462381 134.827455 
L 143.706866 126.855998 
L 144.049896 118.937769 
L 144.492262 111.090381 
L 145.035042 103.331332 
L 145.679651 95.677989 
L 146.427904 88.147565 
L 147.2821 80.757103 
L 148.245135 73.523471 
L 149.320637 66.463356 
L 150.513146 59.593277 
L 151.828349 52.929612 
L 153.273378 46.488645 
L 154.857206 40.286644 
" style="fill:none;stroke:#000000;stroke-linecap:round;stroke-opacity:0.25;stroke-width:1.3;"/>
     </g>
    </g>
    <g id="xtick_18">
     <g id="line2d_10">
      <path clip-path="url(#p67d0aa7644)" d="M 158.242813 261.307452 
L 158.242813 255.063858 
L 158.242813 248.59458 
L 158.242813 241.913629 
L 158.242813 235.035474 
L 158.242813 227.975012 
L 158.242813 220.747535 
L 158.242813 213.368695 
L 158.242813 205.854473 
L 158.242813 198.221144 
L 158.242813 190.48524 
L 158.242813 182.663514 
L 158.242813 174.772908 
L 158.242813 166.83051 
L 158.242813 158.853521 
L 158.242813 150.859219 
L 158.242813 142.864916 
L 158.242813 134.887928 
L 158.242813 126.94553 
L 158.242813 119.054923 
L 158.242813 111.233198 
L 158.242813 103.497293 
L 158.242813 95.863964 
L 158.242813 88.349743 
L 158.242813 80.970903 
L 158.242813 73.743425 
L 158.242813 66.682964 
L 158.242813 59.804809 
L 158.242813 53.123858 
L 158.242813 46.65458 
L 158.242813 40.410986 
" style="fill:none;stroke:#000000;stroke-linecap:round;stroke-opacity:0.25;stroke-width:1.3;"/>
     </g>
    </g>
    <g id="xtick_19">
     <g id="line2d_11">
      <path clip-path="url(#p67d0aa7644)" d="M 161.628419 261.431793 
L 163.212247 255.229792 
L 164.657276 248.788825 
L 165.972479 242.12516 
L 167.164988 235.255081 
L 168.24049 228.194966 
L 169.203525 220.961334 
L 170.057721 213.570873 
L 170.805974 206.040449 
L 171.450583 198.387106 
L 171.993363 190.628057 
L 172.435729 182.780668 
L 172.778759 174.86244 
L 173.023244 166.890983 
L 173.169725 158.883991 
L 173.218518 150.859219 
L 173.169725 142.834446 
L 173.023244 134.827455 
L 172.778759 126.855998 
L 172.435729 118.937769 
L 171.993363 111.090381 
L 171.450583 103.331332 
L 170.805974 95.677989 
L 170.057721 88.147565 
L 169.203525 80.757103 
L 168.24049 73.523471 
L 167.164988 66.463356 
L 165.972479 59.593277 
L 164.657276 52.929612 
L 163.212247 46.488645 
L 161.628419 40.286644 
" style="fill:none;stroke:#000000;stroke-linecap:round;stroke-opacity:0.25;stroke-width:1.3;"/>
     </g>
    </g>
    <g id="xtick_20">
     <g id="line2d_12">
      <path clip-path="url(#p67d0aa7644)" d="M 164.933573 261.80353 
L 168.077341 255.727266 
L 170.952147 249.372558 
L 173.573538 242.762125 
L 175.954001 235.917504 
L 178.103577 228.859408 
L 180.030344 221.607991 
L 181.740797 214.183028 
L 183.240141 206.604047 
L 184.532531 198.890424 
L 185.621256 191.061445 
L 186.508885 183.136351 
L 187.197378 175.134363 
L 187.688181 167.074696 
L 187.982279 158.976572 
L 188.080249 150.859219 
L 187.982279 142.741865 
L 187.688181 134.643742 
L 187.197378 126.584075 
L 186.508885 118.582086 
L 185.621256 110.656992 
L 184.532531 102.828014 
L 183.240141 95.114391 
L 181.740797 87.53541 
L 180.030344 80.110446 
L 178.103577 72.859029 
L 175.954001 65.800934 
L 173.573538 58.956312 
L 170.952147 52.345879 
L 168.077341 45.991172 
L 164.933573 39.914908 
" style="fill:none;stroke:#000000;stroke-linecap:round;stroke-opacity:0.25;stroke-width:1.3;"/>
     </g>
    </g>
    <g id="xtick_21">
     <g id="line2d_13">
      <path clip-path="url(#p67d0aa7644)" d="M 168.078283 262.41867 
L 172.733424 256.555094 
L 177.006695 250.348574 
L 180.915618 243.831501 
L 184.474553 237.033508 
L 187.695238 229.982164 
L 190.587246 222.703484 
L 193.15836 215.222319 
L 195.414876 207.562649 
L 197.361856 199.747802 
L 199.00333 191.800621 
L 200.34246 183.743596 
L 201.381671 175.598956 
L 202.122749 167.388745 
L 202.56692 159.134885 
L 202.714899 150.859219 
L 202.56692 142.583552 
L 202.122749 134.329692 
L 201.381671 126.119482 
L 200.34246 117.974841 
L 199.00333 109.917816 
L 197.361856 101.970636 
L 195.414876 94.155789 
L 193.15836 86.496119 
L 190.587246 79.014954 
L 187.695238 71.736273 
L 184.474553 64.684929 
L 180.915618 57.886937 
L 177.006695 51.369864 
L 172.733424 45.163344 
L 168.078283 39.299767 
" style="fill:none;stroke:#000000;stroke-linecap:round;stroke-opacity:0.25;stroke-width:1.3;"/>
     </g>
    </g>
    <g id="xtick_22">
     <g id="line2d_14">
      <path clip-path="url(#p67d0aa7644)" d="M 170.983557 263.270144 
L 177.075247 257.710635 
L 182.697919 251.720849 
L 187.864725 245.344428 
L 192.586885 238.620894 
L 196.873872 231.586535 
L 200.733617 224.2751 
L 204.172698 216.718346 
L 207.196528 208.94647 
L 209.809512 200.988452 
L 212.015192 192.872325 
L 213.816367 184.625393 
L 215.215194 176.274406 
L 216.213269 167.845709 
L 216.811687 159.365356 
L 217.01109 150.859219 
L 216.811687 142.353082 
L 216.213269 133.872729 
L 215.215194 125.444031 
L 213.816367 117.093045 
L 212.015192 108.846113 
L 209.809512 100.729985 
L 207.196528 92.771967 
L 204.172698 85.000092 
L 200.733617 77.443338 
L 196.873872 70.131902 
L 192.586885 63.097543 
L 187.864725 56.374009 
L 182.697919 49.997588 
L 177.075247 44.007802 
L 170.983557 38.448293 
" style="fill:none;stroke:#000000;stroke-linecap:round;stroke-opacity:0.25;stroke-width:1.3;"/>
     </g>
    </g>
    <g id="xtick_23">
     <g id="line2d_15">
      <path clip-path="url(#p67d0aa7644)" d="M 173.572119 264.347175 
L 180.996905 259.188752 
L 187.899464 253.493413 
L 194.281216 247.315341 
L 200.144049 240.704129 
L 205.490007 233.705582 
L 210.321088 226.362389 
L 214.639127 218.714689 
L 218.445745 210.800545 
L 221.742319 202.656338 
L 224.529989 194.317104 
L 226.80967 185.816806 
L 228.582069 177.188575 
L 229.847713 168.464915 
L 230.606959 159.677876 
L 230.860019 150.859219 
L 230.606959 142.040562 
L 229.847713 133.253523 
L 228.582069 124.529862 
L 226.80967 115.901632 
L 224.529989 107.401334 
L 221.742319 99.062099 
L 218.445745 90.917893 
L 214.639127 83.003749 
L 210.321088 75.356049 
L 205.490007 68.012856 
L 200.144049 61.014309 
L 194.281216 54.403097 
L 187.899464 48.225024 
L 180.996905 42.529685 
L 173.572119 37.371262 
" style="fill:none;stroke:#000000;stroke-linecap:round;stroke-opacity:0.25;stroke-width:1.3;"/>
     </g>
    </g>
    <g id="xtick_24">
     <g id="line2d_16">
      <path clip-path="url(#p67d0aa7644)" d="M 175.769406 265.634432 
L 184.392085 260.980261 
L 192.480673 255.668542 
L 200.017573 249.760418 
L 206.988597 243.313502 
L 213.382253 236.382256 
L 219.189189 229.018368 
L 224.401761 221.27112 
L 229.013714 213.187731 
L 233.019932 204.813675 
L 236.416254 196.192968 
L 239.19934 187.368427 
L 241.366567 178.381914 
L 242.915959 169.274548 
L 243.846137 160.086908 
L 244.156286 150.859219 
L 243.846137 141.631529 
L 242.915959 132.443889 
L 241.366567 123.336524 
L 239.19934 114.350011 
L 236.416254 105.52547 
L 233.019932 96.904762 
L 229.013714 88.530706 
L 224.401761 80.447318 
L 219.189189 72.70007 
L 213.382253 65.336182 
L 206.988597 58.404935 
L 200.017573 51.95802 
L 192.480673 46.049895 
L 184.392085 40.738177 
L 175.769406 36.084005 
" style="fill:none;stroke:#000000;stroke-linecap:round;stroke-opacity:0.25;stroke-width:1.3;"/>
     </g>
    </g>
    <g id="xtick_25">
     <g id="line2d_17">
      <path clip-path="url(#p67d0aa7644)" d="M 177.504935 267.110985 
L 187.154831 263.069827 
L 196.305975 258.244059 
L 204.91606 252.695007 
L 212.948542 246.483372 
L 220.371933 239.668996 
L 227.159194 232.310742 
L 233.287198 224.466452 
L 238.736281 216.192955 
L 243.489868 207.54613 
L 247.534151 198.580989 
L 250.857842 189.351781 
L 253.451961 179.912106 
L 255.309683 170.315043 
L 256.426211 160.613274 
L 256.798701 150.859219 
L 256.426211 141.105163 
L 255.309683 131.403394 
L 253.451961 121.806331 
L 250.857842 112.366656 
L 247.534151 103.137448 
L 243.489868 94.172308 
L 238.736281 85.525483 
L 233.287198 77.251986 
L 227.159194 69.407695 
L 220.371933 62.049442 
L 212.948542 55.235066 
L 204.91606 49.02343 
L 196.305975 43.474379 
L 187.154831 38.648611 
L 177.504935 34.607452 
" style="fill:none;stroke:#000000;stroke-linecap:round;stroke-opacity:0.25;stroke-width:1.3;"/>
     </g>
    </g>
    <g id="xtick_26">
     <g id="line2d_18">
      <path clip-path="url(#p67d0aa7644)" d="M 178.714185 268.749153 
L 189.181107 265.433262 
L 199.234976 261.209466 
L 208.806516 256.129465 
L 217.832564 250.248768 
L 226.255946 243.626049 
L 234.025312 236.322592 
L 241.094948 228.401818 
L 247.424589 219.92888 
L 252.979221 210.970319 
L 257.728903 201.593783 
L 261.648602 191.867783 
L 264.718041 181.861494 
L 266.921584 171.644585 
L 268.248129 161.287079 
L 268.691046 150.859219 
L 268.248129 140.431359 
L 266.921584 130.073852 
L 264.718041 119.856944 
L 261.648602 109.850654 
L 257.728903 100.124654 
L 252.979221 90.748118 
L 247.424589 81.789558 
L 241.094948 73.31662 
L 234.025312 65.395846 
L 226.255946 58.092389 
L 217.832564 51.469669 
L 208.806516 45.588972 
L 199.234976 40.508972 
L 189.181107 36.285175 
L 178.714185 32.969284 
" style="fill:none;stroke:#000000;stroke-linecap:round;stroke-opacity:0.25;stroke-width:1.3;"/>
     </g>
    </g>
    <g id="xtick_27">
     <g id="line2d_19">
      <path clip-path="url(#p67d0aa7644)" d="M 179.341066 270.513361 
L 190.371563 268.034273 
L 201.123876 264.540635 
L 211.504907 260.062695 
L 221.424772 254.639226 
L 230.797581 248.317187 
L 239.542181 241.151315 
L 247.582857 233.203657 
L 254.849989 224.543026 
L 261.280656 215.244409 
L 266.819178 205.388319 
L 271.417601 195.060093 
L 275.036109 184.349157 
L 277.643371 173.348252 
L 279.216814 162.152627 
L 279.742813 150.859219 
L 279.216814 139.565811 
L 277.643371 128.370186 
L 275.036109 117.36928 
L 271.417601 106.658344 
L 266.819178 96.330118 
L 261.280656 86.474028 
L 254.849989 77.175412 
L 247.582857 68.514781 
L 239.542181 60.567122 
L 230.797581 53.401251 
L 221.424772 47.079211 
L 211.504907 41.655742 
L 201.123876 37.177803 
L 190.371563 33.684164 
L 179.341066 31.205077 
" style="fill:none;stroke:#000000;stroke-linecap:round;stroke-opacity:0.25;stroke-width:1.3;"/>
     </g>
    </g>
   </g>
   <g id="matplotlib.axis_4">
    <g id="ytick_1">
     <g id="line2d_20">
      <path clip-path="url(#p67d0aa7644)" d="M 137.144559 270.513361 
L 137.448014 269.441992 
L 137.968351 268.410176 
L 138.694803 267.426708 
L 139.615202 266.499255 
L 140.716219 265.634432 
L 141.983582 264.837886 
L 143.402254 264.114387 
L 144.956587 263.467925 
L 146.630451 262.901792 
L 148.407342 262.41867 
L 150.270462 262.020699 
L 152.202796 261.709541 
L 154.18717 261.486436 
L 156.206295 261.352239 
L 158.242813 261.307452 
L 160.27933 261.352239 
L 162.298455 261.486436 
L 164.282829 261.709541 
L 166.215163 262.020699 
L 168.078283 262.41867 
L 169.855174 262.901792 
L 171.529038 263.467925 
L 173.083371 264.114387 
L 174.502043 264.837886 
L 175.769406 265.634432 
L 176.870423 266.499255 
L 177.790822 267.426708 
L 178.517274 268.410176 
L 179.037611 269.441992 
L 179.341066 270.513361 
" style="fill:none;stroke:#000000;stroke-linecap:round;stroke-opacity:0.25;stroke-width:1.3;"/>
     </g>
    </g>
    <g id="ytick_2">
     <g id="line2d_21">
      <path clip-path="url(#p67d0aa7644)" d="M 116.687365 265.031872 
L 117.634526 263.04413 
L 118.967891 261.176884 
L 120.65755 259.438108 
L 122.673548 257.833372 
L 124.986179 256.366341 
L 127.566166 255.039223 
L 130.384751 253.853135 
L 133.413736 252.808414 
L 136.625475 251.904875 
L 139.992838 251.142007 
L 143.489154 250.519143 
L 147.08815 250.035585 
L 150.763872 249.690697 
L 154.490609 249.483977 
L 158.242813 249.415107 
L 161.995016 249.483977 
L 165.721753 249.690697 
L 169.397475 250.035585 
L 172.996471 250.519143 
L 176.492787 251.142007 
L 179.86015 251.904875 
L 183.071889 252.808414 
L 186.100874 253.853135 
L 188.919459 255.039223 
L 191.499446 256.366341 
L 193.812077 257.833372 
L 195.828075 259.438108 
L 197.517734 261.176884 
L 198.851099 263.04413 
L 199.79826 265.031872 
" style="fill:none;stroke:#000000;stroke-linecap:round;stroke-opacity:0.25;stroke-width:1.3;"/>
     </g>
    </g>
    <g id="ytick_3">
     <g id="line2d_22">
      <path clip-path="url(#p67d0aa7644)" d="M 97.492813 256.081305 
L 99.345127 253.434923 
L 101.687315 251.004631 
L 104.471079 248.787547 
L 107.651359 246.778877 
L 111.186065 244.972714 
L 115.035743 243.362639 
L 119.163238 241.942149 
L 123.533357 240.704969 
L 128.112559 239.645267 
L 132.868676 238.757805 
L 137.770652 238.038043 
L 142.788315 237.482203 
L 147.892175 237.087315 
L 153.053234 236.851241 
L 158.242813 236.772693 
L 163.432391 236.851241 
L 168.59345 237.087315 
L 173.69731 237.482203 
L 178.714973 238.038043 
L 183.616949 238.757805 
L 188.373066 239.645267 
L 192.952268 240.704969 
L 197.322387 241.942149 
L 201.449882 243.362639 
L 205.29956 244.972714 
L 208.834266 246.778877 
L 212.014546 248.787547 
L 214.79831 251.004631 
L 217.140498 253.434923 
L 218.992813 256.081305 
" style="fill:none;stroke:#000000;stroke-linecap:round;stroke-opacity:0.25;stroke-width:1.3;"/>
     </g>
    </g>
    <g id="ytick_4">
     <g id="line2d_23">
      <path clip-path="url(#p67d0aa7644)" d="M 80.144118 243.933619 
L 83.056752 240.956037 
L 86.494779 238.27545 
L 90.399489 235.872594 
L 94.718536 233.72897 
L 99.404762 231.827349 
L 104.415214 230.152033 
L 109.71031 228.688979 
L 115.253169 227.425828 
L 121.009049 226.351878 
L 126.944895 225.458031 
L 133.028966 224.736732 
L 139.23053 224.181903 
L 145.519604 223.788882 
L 151.866735 223.554376 
L 158.242813 223.476425 
L 164.61889 223.554376 
L 170.966021 223.788882 
L 177.255095 224.181903 
L 183.456659 224.736732 
L 189.54073 225.458031 
L 195.476576 226.351878 
L 201.232456 227.425828 
L 206.775315 228.688979 
L 212.070411 230.152033 
L 217.080863 231.827349 
L 221.767089 233.72897 
L 226.086136 235.872594 
L 229.990846 238.27545 
L 233.428873 240.956037 
L 236.341507 243.933619 
" style="fill:none;stroke:#000000;stroke-linecap:round;stroke-opacity:0.25;stroke-width:1.3;"/>
     </g>
    </g>
    <g id="ytick_5">
     <g id="line2d_24">
      <path clip-path="url(#p67d0aa7644)" d="M 65.168413 228.957913 
L 69.175582 226.007167 
L 73.687205 223.394876 
L 78.645071 221.086839 
L 83.998483 219.053296 
L 89.702466 217.268564 
L 95.7164 215.710625 
L 102.002985 214.360729 
L 108.527446 213.203021 
L 115.256927 212.224216 
L 122.160025 211.413326 
L 129.206428 210.761418 
L 136.366635 210.261429 
L 143.611731 209.908017 
L 150.913207 209.697443 
L 158.242813 209.627496 
L 165.572418 209.697443 
L 172.873894 209.908017 
L 180.11899 210.261429 
L 187.279197 210.761418 
L 194.3256 211.413326 
L 201.228698 212.224216 
L 207.958179 213.203021 
L 214.48264 214.360729 
L 220.769225 215.710625 
L 226.783159 217.268564 
L 232.487142 219.053296 
L 237.840554 221.086839 
L 242.79842 223.394876 
L 247.310043 226.007167 
L 251.317212 228.957913 
" style="fill:none;stroke:#000000;stroke-linecap:round;stroke-opacity:0.25;stroke-width:1.3;"/>
     </g>
    </g>
    <g id="ytick_6">
     <g id="line2d_25">
      <path clip-path="url(#p67d0aa7644)" d="M 53.020726 211.609219 
L 58.034538 209.033176 
L 63.497039 206.782781 
L 69.359694 204.816782 
L 75.580129 203.101088 
L 82.120404 201.607491 
L 88.945783 200.31264 
L 96.023854 199.197216 
L 103.323881 198.245274 
L 110.816346 197.443721 
L 118.472602 196.781902 
L 126.264628 196.251276 
L 134.164845 195.845162 
L 142.145976 195.558547 
L 150.180948 195.387946 
L 158.242813 195.331305 
L 166.304677 195.387946 
L 174.339649 195.558547 
L 182.32078 195.845162 
L 190.220997 196.251276 
L 198.013023 196.781902 
L 205.669279 197.443721 
L 213.161744 198.245274 
L 220.461771 199.197216 
L 227.539842 200.31264 
L 234.365221 201.607491 
L 240.905496 203.101088 
L 247.125931 204.816782 
L 252.988586 206.782781 
L 258.451087 209.033176 
L 263.464899 211.609219 
" style="fill:none;stroke:#000000;stroke-linecap:round;stroke-opacity:0.25;stroke-width:1.3;"/>
     </g>
    </g>
    <g id="ytick_7">
     <g id="line2d_26">
      <path clip-path="url(#p67d0aa7644)" d="M 44.070159 192.414666 
L 49.892329 190.512796 
L 56.098368 188.867325 
L 62.653477 187.441348 
L 69.526058 186.205307 
L 76.686654 185.135366 
L 84.107236 184.212218 
L 91.760713 183.420174 
L 99.620595 182.74648 
L 107.660765 182.180793 
L 115.855325 181.714786 
L 124.178492 181.341839 
L 132.604539 181.056809 
L 141.107752 180.855857 
L 149.662418 180.736327 
L 158.242813 180.696655 
L 166.823207 180.736327 
L 175.377873 180.855857 
L 183.881086 181.056809 
L 192.307133 181.341839 
L 200.6303 181.714786 
L 208.82486 182.180793 
L 216.86503 182.74648 
L 224.724912 183.420174 
L 232.378389 184.212218 
L 239.798971 185.135366 
L 246.959567 186.205307 
L 253.832148 187.441348 
L 260.387257 188.867325 
L 266.593296 190.512796 
L 272.415466 192.414666 
" style="fill:none;stroke:#000000;stroke-linecap:round;stroke-opacity:0.25;stroke-width:1.3;"/>
     </g>
    </g>
    <g id="ytick_8">
     <g id="line2d_27">
      <path clip-path="url(#p67d0aa7644)" d="M 38.588671 171.957472 
L 44.933382 170.948781 
L 51.611903 170.081171 
L 58.601005 169.332925 
L 65.877811 168.686949 
L 73.419509 168.129656 
L 81.203182 167.650171 
L 89.205706 167.239747 
L 97.403697 166.891332 
L 105.773488 166.599249 
L 114.291137 166.358951 
L 122.932437 166.166844 
L 131.672953 166.020143 
L 140.488056 165.916778 
L 149.352969 165.855318 
L 158.242813 165.834924 
L 167.132656 165.855318 
L 175.997569 165.916778 
L 184.812672 166.020143 
L 193.553188 166.166844 
L 202.194488 166.358951 
L 210.712137 166.599249 
L 219.081928 166.891332 
L 227.279919 167.239747 
L 235.282443 167.650171 
L 243.066116 168.129656 
L 250.607814 168.686949 
L 257.88462 169.332925 
L 264.873722 170.081171 
L 271.552243 170.948781 
L 277.896954 171.957472 
" style="fill:none;stroke:#000000;stroke-linecap:round;stroke-opacity:0.25;stroke-width:1.3;"/>
     </g>
    </g>
    <g id="ytick_9">
     <g id="line2d_28">
      <path clip-path="url(#p67d0aa7644)" d="M 36.742812 150.859219 
L 43.268143 150.859219 
L 50.10861 150.859219 
L 57.245467 150.859219 
L 64.659149 150.859219 
L 72.329339 150.859219 
L 80.235011 150.859219 
L 88.354497 150.859219 
L 96.665542 150.859219 
L 105.145366 150.859219 
L 113.770726 150.859219 
L 122.517981 150.859219 
L 131.363156 150.859219 
L 140.282006 150.859219 
L 149.250085 150.859219 
L 158.242813 150.859219 
L 167.23554 150.859219 
L 176.203619 150.859219 
L 185.122469 150.859219 
L 193.967644 150.859219 
L 202.714899 150.859219 
L 211.340259 150.859219 
L 219.820083 150.859219 
L 228.131128 150.859219 
L 236.250614 150.859219 
L 244.156286 150.859219 
L 251.826476 150.859219 
L 259.240158 150.859219 
L 266.377015 150.859219 
L 273.217482 150.859219 
L 279.742813 150.859219 
" style="fill:none;stroke:#000000;stroke-linecap:round;stroke-opacity:0.25;stroke-width:1.3;"/>
     </g>
    </g>
    <g id="ytick_10">
     <g id="line2d_29">
      <path clip-path="url(#p67d0aa7644)" d="M 38.588671 129.760965 
L 44.933382 130.769656 
L 51.611903 131.637267 
L 58.601005 132.385512 
L 65.877811 133.031489 
L 73.419509 133.588782 
L 81.203182 134.068267 
L 89.205706 134.478691 
L 97.403697 134.827106 
L 105.773488 135.119189 
L 114.291137 135.359486 
L 122.932437 135.551594 
L 131.672953 135.698295 
L 140.488056 135.80166 
L 149.352969 135.863119 
L 158.242813 135.883513 
L 167.132656 135.863119 
L 175.997569 135.80166 
L 184.812672 135.698295 
L 193.553188 135.551594 
L 202.194488 135.359486 
L 210.712137 135.119189 
L 219.081928 134.827106 
L 227.279919 134.478691 
L 235.282443 134.068267 
L 243.066116 133.588782 
L 250.607814 133.031489 
L 257.88462 132.385512 
L 264.873722 131.637267 
L 271.552243 130.769656 
L 277.896954 129.760965 
" style="fill:none;stroke:#000000;stroke-linecap:round;stroke-opacity:0.25;stroke-width:1.3;"/>
     </g>
    </g>
    <g id="ytick_11">
     <g id="line2d_30">
      <path clip-path="url(#p67d0aa7644)" d="M 44.070159 109.303771 
L 49.892329 111.205641 
L 56.098368 112.851113 
L 62.653477 114.277089 
L 69.526058 115.513131 
L 76.686654 116.583072 
L 84.107236 117.50622 
L 91.760713 118.298264 
L 99.620595 118.971958 
L 107.660765 119.537644 
L 115.855325 120.003651 
L 124.178492 120.376598 
L 132.604539 120.661629 
L 141.107752 120.86258 
L 149.662418 120.982111 
L 158.242813 121.021782 
L 166.823207 120.982111 
L 175.377873 120.86258 
L 183.881086 120.661629 
L 192.307133 120.376598 
L 200.6303 120.003651 
L 208.82486 119.537644 
L 216.86503 118.971958 
L 224.724912 118.298264 
L 232.378389 117.50622 
L 239.798971 116.583072 
L 246.959567 115.513131 
L 253.832148 114.277089 
L 260.387257 112.851113 
L 266.593296 111.205641 
L 272.415466 109.303771 
" style="fill:none;stroke:#000000;stroke-linecap:round;stroke-opacity:0.25;stroke-width:1.3;"/>
     </g>
    </g>
    <g id="ytick_12">
     <g id="line2d_31">
      <path clip-path="url(#p67d0aa7644)" d="M 53.020726 90.109219 
L 58.034538 92.685261 
L 63.497039 94.935657 
L 69.359694 96.901655 
L 75.580129 98.617349 
L 82.120404 100.110946 
L 88.945783 101.405797 
L 96.023854 102.521222 
L 103.323881 103.473164 
L 110.816346 104.274717 
L 118.472602 104.936535 
L 126.264628 105.467161 
L 134.164845 105.873275 
L 142.145976 106.15989 
L 150.180948 106.330491 
L 158.242813 106.387132 
L 166.304677 106.330491 
L 174.339649 106.15989 
L 182.32078 105.873275 
L 190.220997 105.467161 
L 198.013023 104.936535 
L 205.669279 104.274717 
L 213.161744 103.473164 
L 220.461771 102.521222 
L 227.539842 101.405797 
L 234.365221 100.110946 
L 240.905496 98.617349 
L 247.125931 96.901655 
L 252.988586 94.935657 
L 258.451087 92.685261 
L 263.464899 90.109219 
" style="fill:none;stroke:#000000;stroke-linecap:round;stroke-opacity:0.25;stroke-width:1.3;"/>
     </g>
    </g>
    <g id="ytick_13">
     <g id="line2d_32">
      <path clip-path="url(#p67d0aa7644)" d="M 65.168413 72.760524 
L 69.175582 75.71127 
L 73.687205 78.323561 
L 78.645071 80.631599 
L 83.998483 82.665142 
L 89.702466 84.449874 
L 95.7164 86.007812 
L 102.002985 87.357708 
L 108.527446 88.515417 
L 115.256927 89.494221 
L 122.160025 90.305112 
L 129.206428 90.95702 
L 136.366635 91.457008 
L 143.611731 91.81042 
L 150.913207 92.020994 
L 158.242813 92.090941 
L 165.572418 92.020994 
L 172.873894 91.81042 
L 180.11899 91.457008 
L 187.279197 90.95702 
L 194.3256 90.305112 
L 201.228698 89.494221 
L 207.958179 88.515417 
L 214.48264 87.357708 
L 220.769225 86.007812 
L 226.783159 84.449874 
L 232.487142 82.665142 
L 237.840554 80.631599 
L 242.79842 78.323561 
L 247.310043 75.71127 
L 251.317212 72.760524 
" style="fill:none;stroke:#000000;stroke-linecap:round;stroke-opacity:0.25;stroke-width:1.3;"/>
     </g>
    </g>
    <g id="ytick_14">
     <g id="line2d_33">
      <path clip-path="url(#p67d0aa7644)" d="M 80.144118 57.784819 
L 83.056752 60.762401 
L 86.494779 63.442988 
L 90.399489 65.845844 
L 94.718536 67.989467 
L 99.404762 69.891088 
L 104.415214 71.566404 
L 109.71031 73.029458 
L 115.253169 74.292609 
L 121.009049 75.36656 
L 126.944895 76.260407 
L 133.028966 76.981705 
L 139.23053 77.536534 
L 145.519604 77.929555 
L 151.866735 78.164061 
L 158.242813 78.242013 
L 164.61889 78.164061 
L 170.966021 77.929555 
L 177.255095 77.536534 
L 183.456659 76.981705 
L 189.54073 76.260407 
L 195.476576 75.36656 
L 201.232456 74.292609 
L 206.775315 73.029458 
L 212.070411 71.566404 
L 217.080863 69.891088 
L 221.767089 67.989467 
L 226.086136 65.845844 
L 229.990846 63.442988 
L 233.428873 60.762401 
L 236.341507 57.784819 
" style="fill:none;stroke:#000000;stroke-linecap:round;stroke-opacity:0.25;stroke-width:1.3;"/>
     </g>
    </g>
    <g id="ytick_15">
     <g id="line2d_34">
      <path clip-path="url(#p67d0aa7644)" d="M 97.492813 45.637132 
L 99.345127 48.283515 
L 101.687315 50.713807 
L 104.471079 52.93089 
L 107.651359 54.939561 
L 111.186065 56.745723 
L 115.035743 58.355799 
L 119.163238 59.776288 
L 123.533357 61.013469 
L 128.112559 62.073171 
L 132.868676 62.960633 
L 137.770652 63.680394 
L 142.788315 64.236234 
L 147.892175 64.631122 
L 153.053234 64.867197 
L 158.242813 64.945745 
L 163.432391 64.867197 
L 168.59345 64.631122 
L 173.69731 64.236234 
L 178.714973 63.680394 
L 183.616949 62.960633 
L 188.373066 62.073171 
L 192.952268 61.013469 
L 197.322387 59.776288 
L 201.449882 58.355799 
L 205.29956 56.745723 
L 208.834266 54.939561 
L 212.014546 52.93089 
L 214.79831 50.713807 
L 217.140498 48.283515 
L 218.992813 45.637132 
" style="fill:none;stroke:#000000;stroke-linecap:round;stroke-opacity:0.25;stroke-width:1.3;"/>
     </g>
    </g>
    <g id="ytick_16">
     <g id="line2d_35">
      <path clip-path="url(#p67d0aa7644)" d="M 116.687365 36.686565 
L 117.634526 38.674308 
L 118.967891 40.541554 
L 120.65755 42.280329 
L 122.673548 43.885066 
L 124.986179 45.352096 
L 127.566166 46.679214 
L 130.384751 47.865303 
L 133.413736 48.910023 
L 136.625475 49.813563 
L 139.992838 50.576431 
L 143.489154 51.199294 
L 147.08815 51.682852 
L 150.763872 52.027741 
L 154.490609 52.23446 
L 158.242813 52.30333 
L 161.995016 52.23446 
L 165.721753 52.027741 
L 169.397475 51.682852 
L 172.996471 51.199294 
L 176.492787 50.576431 
L 179.86015 49.813563 
L 183.071889 48.910023 
L 186.100874 47.865303 
L 188.919459 46.679214 
L 191.499446 45.352096 
L 193.812077 43.885066 
L 195.828075 42.280329 
L 197.517734 40.541554 
L 198.851099 38.674308 
L 199.79826 36.686565 
" style="fill:none;stroke:#000000;stroke-linecap:round;stroke-opacity:0.25;stroke-width:1.3;"/>
     </g>
    </g>
    <g id="ytick_17">
     <g id="line2d_36">
      <path clip-path="url(#p67d0aa7644)" d="M 137.144559 31.205077 
L 137.448014 32.276445 
L 137.968351 33.308262 
L 138.694803 34.29173 
L 139.615202 35.219182 
L 140.716219 36.084005 
L 141.983582 36.880552 
L 143.402254 37.604051 
L 144.956587 38.250513 
L 146.630451 38.816645 
L 148.407342 39.299767 
L 150.270462 39.697739 
L 152.202796 40.008896 
L 154.18717 40.232001 
L 156.206295 40.366198 
L 158.242813 40.410986 
L 160.27933 40.366198 
L 162.298455 40.232001 
L 164.282829 40.008896 
L 166.215163 39.697739 
L 168.078283 39.299767 
L 169.855174 38.816645 
L 171.529038 38.250513 
L 173.083371 37.604051 
L 174.502043 36.880552 
L 175.769406 36.084005 
L 176.870423 35.219182 
L 177.790822 34.29173 
L 178.517274 33.308262 
L 179.037611 32.276445 
L 179.341066 31.205077 
" style="fill:none;stroke:#000000;stroke-linecap:round;stroke-opacity:0.25;stroke-width:1.3;"/>
     </g>
    </g>
   </g>
   <g id="line2d_37">
    <defs>
     <path d="M 0 5 
C 1.326016 5 2.597899 4.473168 3.535534 3.535534 
C 4.473168 2.597899 5 1.326016 5 0 
C 5 -1.326016 4.473168 -2.597899 3.535534 -3.535534 
C 2.597899 -4.473168 1.326016 -5 0 -5 
C -1.326016 -5 -2.597899 -4.473168 -3.535534 -3.535534 
C -4.473168 -2.597899 -5 -1.326016 -5 0 
C -5 1.326016 -4.473168 2.597899 -3.535534 3.535534 
C -2.597899 4.473168 -1.326016 5 0 5 
z
" id="m921566e3ef" style="stroke:#808080;stroke-width:1.1;"/>
    </defs>
    <g clip-path="url(#p67d0aa7644)">
     <use style="fill:#015482;stroke:#808080;stroke-width:1.1;" x="47.126079" xlink:href="#m921566e3ef" y="150.859219"/>
     <use style="fill:#015482;stroke:#808080;stroke-width:1.1;" x="58.846423" xlink:href="#m921566e3ef" y="150.859219"/>
     <use style="fill:#015482;stroke:#808080;stroke-width:1.1;" x="67.315569" xlink:href="#m921566e3ef" y="150.859219"/>
    </g>
   </g>
   <g id="line2d_38">
    <path clip-path="url(#p67d0aa7644)" d="M 158.242813 272.359219 
L 158.863893 270.440991 
L 159.465944 268.490385 
L 160.04963 266.508058 
L 160.615563 264.494661 
L 161.164304 262.450841 
L 161.696371 260.377239 
L 162.212238 258.274493 
L 162.712346 256.14324 
L 163.1971 253.984114 
L 163.666872 251.79775 
L 164.122008 249.584782 
L 164.562827 247.345843 
L 164.989624 245.08157 
L 165.402672 242.792598 
L 165.802222 240.479565 
L 166.188509 238.143112 
L 166.561748 235.783878 
L 166.922141 233.402509 
L 167.269871 230.99965 
L 167.605112 228.57595 
L 167.928022 226.132059 
L 168.238748 223.668631 
L 168.537428 221.186323 
L 168.824187 218.685792 
L 169.099143 216.167701 
L 169.362405 213.632713 
L 169.614071 211.081496 
L 169.854236 208.514719 
L 170.082984 205.933053 
L 170.300396 203.337172 
L 170.506543 200.727755 
L 170.701494 198.105479 
L 170.88531 195.471027 
L 171.058047 192.825082 
L 171.219758 190.168329 
L 171.370491 187.501456 
L 171.510288 184.825153 
L 171.63919 182.140111 
L 171.757231 179.447023 
L 171.864445 176.746583 
L 171.960858 174.039487 
L 172.046497 171.326433 
L 172.121385 168.608118 
L 172.185539 165.885242 
L 172.238976 163.158506 
L 172.28171 160.428609 
L 172.313751 157.696254 
L 172.335108 154.962142 
L 172.345785 152.226977 
L 172.345785 149.49146 
L 172.335108 146.756295 
L 172.313751 144.022184 
L 172.28171 141.289829 
L 172.238976 138.559932 
L 172.185539 135.833195 
L 172.121385 133.110319 
L 172.046497 130.392005 
L 171.960858 127.67895 
L 171.864445 124.971855 
L 171.757231 122.271415 
L 171.63919 119.578326 
L 171.510288 116.893284 
L 171.370491 114.216981 
L 171.219758 111.550109 
L 171.058047 108.893356 
L 170.88531 106.24741 
L 170.701494 103.612958 
L 170.506543 100.990682 
L 170.300396 98.381265 
L 170.082984 95.785385 
L 169.854236 93.203719 
L 169.614071 90.636941 
L 169.362405 88.085724 
L 169.099143 85.550737 
L 168.824187 83.032645 
L 168.537428 80.532115 
L 168.238748 78.049806 
L 167.928022 75.586378 
L 167.605112 73.142488 
L 167.269871 70.718787 
L 166.922141 68.315928 
L 166.561748 65.934559 
L 166.188509 63.575326 
L 165.802222 61.238872 
L 165.402672 58.92584 
L 164.989624 56.636868 
L 164.562827 54.372594 
L 164.122008 52.133656 
L 163.666872 49.920687 
L 163.1971 47.734323 
L 162.712346 45.575198 
L 162.212238 43.443944 
L 161.696371 41.341198 
L 161.164304 39.267596 
L 160.615563 37.223776 
L 160.04963 35.21038 
L 159.465944 33.228053 
L 158.863893 31.277446 
L 158.242813 29.359219 
" style="fill:none;stroke:#015482;stroke-linecap:round;stroke-width:1.5;"/>
   </g>
   <g id="line2d_39">
    <path clip-path="url(#p67d0aa7644)" d="M 158.242813 272.359219 
L 159.499163 270.519809 
L 160.718555 268.64095 
L 161.902134 266.723772 
L 163.050958 264.769361 
L 164.166006 262.77876 
L 165.248183 260.752978 
L 166.298328 258.692991 
L 167.317217 256.599749 
L 168.305569 254.474176 
L 169.264051 252.317174 
L 170.193281 250.129626 
L 171.093832 247.912397 
L 171.966236 245.66634 
L 172.810986 243.392291 
L 173.62854 241.091076 
L 174.419322 238.763512 
L 175.183728 236.410404 
L 175.922123 234.032552 
L 176.634847 231.630748 
L 177.322216 229.205777 
L 177.984524 226.758421 
L 178.622041 224.289456 
L 179.23502 221.799654 
L 179.823696 219.289784 
L 180.388285 216.760613 
L 180.928989 214.212905 
L 181.445994 211.647422 
L 181.939473 209.064924 
L 182.409585 206.466171 
L 182.856479 203.85192 
L 183.28029 201.222928 
L 183.681144 198.579953 
L 184.059157 195.923749 
L 184.414436 193.255073 
L 184.747077 190.57468 
L 185.057171 187.883326 
L 185.344798 185.181764 
L 185.610032 182.470752 
L 185.852941 179.751044 
L 186.073584 177.023395 
L 186.272016 174.288561 
L 186.448283 171.547298 
L 186.602428 168.800362 
L 186.734487 166.048509 
L 186.84449 163.292494 
L 186.932462 160.533075 
L 186.998424 157.771008 
L 187.04239 155.007049 
L 187.064371 152.241955 
L 187.064371 149.476483 
L 187.04239 146.711389 
L 186.998424 143.94743 
L 186.932462 141.185362 
L 186.84449 138.425943 
L 186.734487 135.669929 
L 186.602428 132.918076 
L 186.448283 130.171139 
L 186.272016 127.429876 
L 186.073584 124.695043 
L 185.852941 121.967394 
L 185.610032 119.247686 
L 185.344798 116.536673 
L 185.057171 113.835112 
L 184.747077 111.143757 
L 184.414436 108.463364 
L 184.059157 105.794688 
L 183.681144 103.138485 
L 183.28029 100.495509 
L 182.856479 97.866518 
L 182.409585 95.252267 
L 181.939473 92.653513 
L 181.445994 90.071016 
L 180.928989 87.505532 
L 180.388285 84.957824 
L 179.823696 82.428654 
L 179.23502 79.918784 
L 178.622041 77.428982 
L 177.984524 74.960016 
L 177.322216 72.51266 
L 176.634847 70.087689 
L 175.922123 67.685885 
L 175.183728 65.308033 
L 174.419322 62.954926 
L 173.62854 60.627361 
L 172.810986 58.326147 
L 171.966236 56.052098 
L 171.093832 53.80604 
L 170.193281 51.588812 
L 169.264051 49.401264 
L 168.305569 47.244262 
L 167.317217 45.118688 
L 166.298328 43.025446 
L 165.248183 40.96546 
L 164.166006 38.939678 
L 163.050958 36.949077 
L 161.902134 34.994665 
L 160.718555 33.077488 
L 159.499163 31.198629 
L 158.242813 29.359219 
" style="fill:none;stroke:#015482;stroke-linecap:round;stroke-width:1.5;"/>
   </g>
   <g id="line2d_40">
    <path clip-path="url(#p67d0aa7644)" d="M 158.242813 272.359219 
L 159.915095 270.60411 
L 161.540375 268.802302 
L 163.119902 266.955362 
L 164.654841 265.064784 
L 166.146275 263.131989 
L 167.595213 261.158339 
L 169.002595 259.145137 
L 170.369296 257.093639 
L 171.69613 255.005054 
L 172.983858 252.880551 
L 174.233185 250.721262 
L 175.444769 248.528287 
L 176.619226 246.302696 
L 177.757124 244.045532 
L 178.858997 241.757816 
L 179.925339 239.440546 
L 180.956613 237.0947 
L 181.953247 234.721239 
L 182.915641 232.32111 
L 183.844167 229.895245 
L 184.739172 227.444561 
L 185.600979 224.969967 
L 186.429885 222.47236 
L 187.226171 219.952629 
L 187.990094 217.411653 
L 188.721894 214.850305 
L 189.421796 212.269451 
L 190.090005 209.669951 
L 190.726713 207.05266 
L 191.332098 204.418427 
L 191.906322 201.7681 
L 192.449538 199.10252 
L 192.961885 196.422525 
L 193.443491 193.728952 
L 193.894473 191.022634 
L 194.31494 188.304403 
L 194.70499 185.575086 
L 195.064712 182.835511 
L 195.394188 180.086503 
L 195.69349 177.328888 
L 195.962682 174.563487 
L 196.201824 171.791123 
L 196.410965 169.012617 
L 196.590149 166.228789 
L 196.739413 163.440459 
L 196.858788 160.648446 
L 196.948299 157.85357 
L 197.007962 155.056647 
L 197.037791 152.258498 
L 197.037791 149.45994 
L 197.007962 146.66179 
L 196.948299 143.864868 
L 196.858788 141.069991 
L 196.739413 138.277978 
L 196.590149 135.489649 
L 196.410965 132.705821 
L 196.201824 129.927315 
L 195.962682 127.154951 
L 195.69349 124.38955 
L 195.394188 121.631934 
L 195.064712 118.882927 
L 194.70499 116.143352 
L 194.31494 113.414035 
L 193.894473 110.695803 
L 193.443491 107.989485 
L 192.961885 105.295912 
L 192.449538 102.615918 
L 191.906322 99.950337 
L 191.332098 97.30001 
L 190.726713 94.665778 
L 190.090005 92.048487 
L 189.421796 89.448986 
L 188.721894 86.868132 
L 187.990094 84.306784 
L 187.226171 81.765808 
L 186.429885 79.246077 
L 185.600979 76.74847 
L 184.739172 74.273877 
L 183.844167 71.823193 
L 182.915641 69.397327 
L 181.953247 66.997198 
L 180.956613 64.623738 
L 179.925339 62.277892 
L 178.858997 59.960621 
L 177.757124 57.672905 
L 176.619226 55.415742 
L 175.444769 53.190151 
L 174.233185 50.997176 
L 172.983858 48.837887 
L 171.69613 46.713384 
L 170.369296 44.624798 
L 169.002595 42.5733 
L 167.595213 40.560099 
L 166.146275 38.586448 
L 164.654841 36.653654 
L 163.119902 34.763075 
L 161.540375 32.916136 
L 159.915095 31.114327 
L 158.242813 29.359219 
" style="fill:none;stroke:#015482;stroke-linecap:round;stroke-width:1.5;"/>
   </g>
   <g id="patch_3">
    <path d="M 158.242813 272.359219 
C 190.464989 272.359219 221.371767 259.557212 244.156286 236.772693 
C 266.940806 213.988173 279.742813 183.081395 279.742813 150.859219 
C 279.742813 118.637042 266.940806 87.730264 244.156286 64.945745 
C 221.371767 42.161225 190.464989 29.359219 158.242813 29.359219 
C 126.020636 29.359219 95.113858 42.161225 72.329339 64.945745 
C 49.544819 87.730264 36.742812 118.637042 36.742812 150.859219 
C 36.742812 183.081395 49.544819 213.988173 72.329339 236.772693 
C 95.113858 259.557212 126.020636 272.359219 158.242813 272.359219 
z
" style="fill:none;stroke:#262626;stroke-linecap:square;stroke-linejoin:miter;stroke-width:1.25;"/>
   </g>
   <g id="legend_1">
    <g id="line2d_41"/>
    <g id="line2d_42">
     <g>
      <use style="fill:#015482;stroke:#808080;stroke-width:1.1;" x="353.517188" xlink:href="#m921566e3ef" y="21.630156"/>
     </g>
    </g>
    <g id="text_9">
     <!-- Fault2: pole point -->
     <defs>
      <path d="M 17.53125 61.1875 
L 17.53125 35.59375 
L 55.90625 35.59375 
L 55.90625 27.875 
L 17.53125 27.875 
L 17.53125 0 
L 8.203125 0 
L 8.203125 68.796875 
L 57.078125 68.796875 
L 57.078125 61.1875 
z
" id="LiberationSans-70"/>
      <path d="M 20.21875 -0.984375 
Q 12.25 -0.984375 8.25 3.21875 
Q 4.25 7.421875 4.25 14.75 
Q 4.25 19.96875 6.21875 23.3125 
Q 8.203125 26.65625 11.390625 28.5625 
Q 14.59375 30.46875 18.6875 31.203125 
Q 22.796875 31.9375 27.046875 32.03125 
L 38.921875 32.234375 
L 38.921875 35.109375 
Q 38.921875 38.375 38.234375 40.671875 
Q 37.546875 42.96875 36.125 44.375 
Q 34.71875 45.796875 32.59375 46.453125 
Q 30.46875 47.125 27.59375 47.125 
Q 25.046875 47.125 23 46.75 
Q 20.953125 46.390625 19.4375 45.4375 
Q 17.921875 44.484375 16.984375 42.84375 
Q 16.0625 41.21875 15.765625 38.71875 
L 6.59375 39.546875 
Q 7.078125 42.671875 8.4375 45.28125 
Q 9.8125 47.90625 12.328125 49.796875 
Q 14.84375 51.703125 18.625 52.75 
Q 22.40625 53.8125 27.78125 53.8125 
Q 37.75 53.8125 42.765625 49.234375 
Q 47.796875 44.671875 47.796875 36.03125 
L 47.796875 13.28125 
Q 47.796875 9.375 48.828125 7.390625 
Q 49.859375 5.421875 52.734375 5.421875 
Q 53.46875 5.421875 54.203125 5.515625 
Q 54.9375 5.609375 55.609375 5.765625 
L 55.609375 0.296875 
Q 53.953125 -0.09375 52.3125 -0.28125 
Q 50.6875 -0.484375 48.828125 -0.484375 
Q 46.34375 -0.484375 44.5625 0.171875 
Q 42.78125 0.828125 41.65625 2.171875 
Q 40.53125 3.515625 39.9375 5.484375 
Q 39.359375 7.46875 39.203125 10.109375 
L 38.921875 10.109375 
Q 37.5 7.5625 35.8125 5.515625 
Q 34.125 3.46875 31.875 2.03125 
Q 29.640625 0.59375 26.78125 -0.1875 
Q 23.921875 -0.984375 20.21875 -0.984375 
z
M 22.21875 5.609375 
Q 26.421875 5.609375 29.5625 7.140625 
Q 32.71875 8.6875 34.78125 11.078125 
Q 36.859375 13.484375 37.890625 16.3125 
Q 38.921875 19.140625 38.921875 21.734375 
L 38.921875 26.078125 
L 29.296875 25.875 
Q 26.078125 25.828125 23.171875 25.40625 
Q 20.265625 25 18.0625 23.78125 
Q 15.875 22.5625 14.578125 20.359375 
Q 13.28125 18.171875 13.28125 14.59375 
Q 13.28125 10.296875 15.59375 7.953125 
Q 17.921875 5.609375 22.21875 5.609375 
z
" id="LiberationSans-97"/>
      <path d="M 15.328125 52.828125 
L 15.328125 19.34375 
Q 15.328125 15.484375 15.890625 12.890625 
Q 16.453125 10.296875 17.71875 8.703125 
Q 19 7.125 21.0625 6.46875 
Q 23.140625 5.8125 26.21875 5.8125 
Q 29.34375 5.8125 31.859375 6.90625 
Q 34.375 8.015625 36.15625 10.078125 
Q 37.9375 12.15625 38.90625 15.203125 
Q 39.890625 18.265625 39.890625 22.21875 
L 39.890625 52.828125 
L 48.6875 52.828125 
L 48.6875 11.28125 
Q 48.6875 9.625 48.703125 7.78125 
Q 48.734375 5.953125 48.78125 4.3125 
Q 48.828125 2.6875 48.875 1.515625 
Q 48.921875 0.34375 48.96875 0 
L 40.671875 0 
Q 40.625 0.25 40.578125 1.3125 
Q 40.53125 2.390625 40.453125 3.78125 
Q 40.375 5.171875 40.328125 6.609375 
Q 40.28125 8.0625 40.28125 9.03125 
L 40.140625 9.03125 
Q 38.875 6.734375 37.359375 4.875 
Q 35.84375 3.03125 33.84375 1.734375 
Q 31.84375 0.4375 29.25 -0.265625 
Q 26.65625 -0.984375 23.25 -0.984375 
Q 18.84375 -0.984375 15.671875 0.09375 
Q 12.5 1.171875 10.453125 3.421875 
Q 8.40625 5.671875 7.453125 9.1875 
Q 6.5 12.703125 6.5 17.625 
L 6.5 52.828125 
z
" id="LiberationSans-117"/>
      <path d="M 6.734375 0 
L 6.734375 72.46875 
L 15.53125 72.46875 
L 15.53125 0 
z
" id="LiberationSans-108"/>
      <path d="M 27.046875 0.390625 
Q 25.046875 -0.140625 22.96875 -0.453125 
Q 20.90625 -0.78125 18.171875 -0.78125 
Q 7.625 -0.78125 7.625 11.1875 
L 7.625 46.4375 
L 1.515625 46.4375 
L 1.515625 52.828125 
L 7.953125 52.828125 
L 10.546875 64.65625 
L 16.40625 64.65625 
L 16.40625 52.828125 
L 26.171875 52.828125 
L 26.171875 46.4375 
L 16.40625 46.4375 
L 16.40625 13.09375 
Q 16.40625 9.28125 17.640625 7.734375 
Q 18.890625 6.203125 21.96875 6.203125 
Q 23.25 6.203125 24.4375 6.390625 
Q 25.640625 6.59375 27.046875 6.890625 
z
" id="LiberationSans-116"/>
      <path d="M 9.125 42.71875 
L 9.125 52.828125 
L 18.65625 52.828125 
L 18.65625 42.71875 
z
M 9.125 0 
L 9.125 10.109375 
L 18.65625 10.109375 
L 18.65625 0 
z
" id="LiberationSans-58"/>
      <path id="LiberationSans-32"/>
      <path d="M 51.421875 26.65625 
Q 51.421875 20.65625 50.4375 15.578125 
Q 49.46875 10.5 47.1875 6.828125 
Q 44.921875 3.171875 41.1875 1.09375 
Q 37.453125 -0.984375 31.984375 -0.984375 
Q 26.3125 -0.984375 22.0625 1.171875 
Q 17.828125 3.328125 15.578125 8.203125 
L 15.328125 8.203125 
Q 15.375 8.109375 15.40625 7.328125 
Q 15.4375 6.546875 15.453125 5.375 
Q 15.484375 4.203125 15.5 2.75 
Q 15.53125 1.3125 15.53125 -0.09375 
L 15.53125 -20.75 
L 6.734375 -20.75 
L 6.734375 42.046875 
Q 6.734375 43.953125 6.703125 45.703125 
Q 6.6875 47.46875 6.640625 48.90625 
Q 6.59375 50.34375 6.546875 51.359375 
Q 6.5 52.390625 6.453125 52.828125 
L 14.9375 52.828125 
Q 14.984375 52.6875 15.0625 51.796875 
Q 15.140625 50.921875 15.203125 49.671875 
Q 15.28125 48.4375 15.359375 47.015625 
Q 15.4375 45.609375 15.4375 44.34375 
L 15.625 44.34375 
Q 16.84375 46.875 18.40625 48.65625 
Q 19.96875 50.4375 21.96875 51.578125 
Q 23.96875 52.734375 26.4375 53.25 
Q 28.90625 53.765625 31.984375 53.765625 
Q 37.453125 53.765625 41.1875 51.8125 
Q 44.921875 49.859375 47.1875 46.3125 
Q 49.46875 42.78125 50.4375 37.765625 
Q 51.421875 32.765625 51.421875 26.65625 
z
M 42.1875 26.46875 
Q 42.1875 31.34375 41.59375 35.15625 
Q 41.015625 38.96875 39.578125 41.59375 
Q 38.140625 44.234375 35.734375 45.59375 
Q 33.34375 46.96875 29.734375 46.96875 
Q 26.8125 46.96875 24.21875 46.140625 
Q 21.625 45.3125 19.703125 42.96875 
Q 17.78125 40.625 16.65625 36.5 
Q 15.53125 32.375 15.53125 25.78125 
Q 15.53125 20.171875 16.453125 16.28125 
Q 17.390625 12.40625 19.171875 10.015625 
Q 20.953125 7.625 23.578125 6.5625 
Q 26.21875 5.515625 29.640625 5.515625 
Q 33.296875 5.515625 35.71875 6.921875 
Q 38.140625 8.34375 39.578125 11.03125 
Q 41.015625 13.71875 41.59375 17.59375 
Q 42.1875 21.484375 42.1875 26.46875 
z
" id="LiberationSans-112"/>
      <path d="M 51.421875 26.46875 
Q 51.421875 12.59375 45.3125 5.796875 
Q 39.203125 -0.984375 27.59375 -0.984375 
Q 22.078125 -0.984375 17.71875 0.671875 
Q 13.375 2.34375 10.375 5.765625 
Q 7.375 9.1875 5.78125 14.328125 
Q 4.203125 19.484375 4.203125 26.46875 
Q 4.203125 53.8125 27.875 53.8125 
Q 34.03125 53.8125 38.5 52.09375 
Q 42.96875 50.390625 45.828125 46.96875 
Q 48.6875 43.5625 50.046875 38.421875 
Q 51.421875 33.296875 51.421875 26.46875 
z
M 42.1875 26.46875 
Q 42.1875 32.625 41.234375 36.625 
Q 40.28125 40.625 38.453125 43.015625 
Q 36.625 45.40625 33.984375 46.359375 
Q 31.34375 47.3125 28.03125 47.3125 
Q 24.65625 47.3125 21.9375 46.3125 
Q 19.234375 45.3125 17.328125 42.890625 
Q 15.4375 40.484375 14.421875 36.46875 
Q 13.421875 32.46875 13.421875 26.46875 
Q 13.421875 20.3125 14.5 16.28125 
Q 15.578125 12.25 17.453125 9.859375 
Q 19.34375 7.46875 21.90625 6.484375 
Q 24.46875 5.515625 27.484375 5.515625 
Q 30.859375 5.515625 33.59375 6.46875 
Q 36.328125 7.421875 38.234375 9.8125 
Q 40.140625 12.203125 41.15625 16.25 
Q 42.1875 20.3125 42.1875 26.46875 
z
" id="LiberationSans-111"/>
      <path d="M 13.484375 24.5625 
Q 13.484375 20.40625 14.328125 16.90625 
Q 15.1875 13.421875 16.96875 10.90625 
Q 18.75 8.40625 21.53125 7 
Q 24.3125 5.609375 28.21875 5.609375 
Q 33.9375 5.609375 37.375 7.90625 
Q 40.828125 10.203125 42.046875 13.71875 
L 49.75 11.53125 
Q 48.921875 9.328125 47.4375 7.109375 
Q 45.953125 4.890625 43.453125 3.09375 
Q 40.96875 1.3125 37.234375 0.15625 
Q 33.5 -0.984375 28.21875 -0.984375 
Q 16.5 -0.984375 10.375 6 
Q 4.25 12.984375 4.25 26.765625 
Q 4.25 34.1875 6.09375 39.328125 
Q 7.953125 44.484375 11.171875 47.703125 
Q 14.40625 50.921875 18.703125 52.359375 
Q 23 53.8125 27.875 53.8125 
Q 34.515625 53.8125 38.984375 51.65625 
Q 43.453125 49.515625 46.15625 45.71875 
Q 48.875 41.9375 50.015625 36.8125 
Q 51.171875 31.6875 51.171875 25.734375 
L 51.171875 24.5625 
z
M 42.09375 31.296875 
Q 41.359375 39.65625 37.84375 43.484375 
Q 34.328125 47.3125 27.734375 47.3125 
Q 25.53125 47.3125 23.109375 46.609375 
Q 20.703125 45.90625 18.65625 44.09375 
Q 16.609375 42.28125 15.1875 39.171875 
Q 13.765625 36.078125 13.578125 31.296875 
z
" id="LiberationSans-101"/>
      <path d="M 6.6875 64.0625 
L 6.6875 72.46875 
L 15.484375 72.46875 
L 15.484375 64.0625 
z
M 6.6875 0 
L 6.6875 52.828125 
L 15.484375 52.828125 
L 15.484375 0 
z
" id="LiberationSans-105"/>
      <path d="M 40.28125 0 
L 40.28125 33.5 
Q 40.28125 37.359375 39.71875 39.9375 
Q 39.15625 42.53125 37.890625 44.109375 
Q 36.625 45.703125 34.546875 46.359375 
Q 32.46875 47.015625 29.390625 47.015625 
Q 26.265625 47.015625 23.75 45.921875 
Q 21.234375 44.828125 19.453125 42.75 
Q 17.671875 40.671875 16.6875 37.625 
Q 15.71875 34.578125 15.71875 30.609375 
L 15.71875 0 
L 6.9375 0 
L 6.9375 41.546875 
Q 6.9375 43.21875 6.90625 45.046875 
Q 6.890625 46.875 6.828125 48.5 
Q 6.78125 50.140625 6.734375 51.3125 
Q 6.6875 52.484375 6.640625 52.828125 
L 14.9375 52.828125 
Q 14.984375 52.59375 15.03125 51.515625 
Q 15.09375 50.4375 15.15625 49.046875 
Q 15.234375 47.65625 15.28125 46.21875 
Q 15.328125 44.78125 15.328125 43.796875 
L 15.484375 43.796875 
Q 16.75 46.09375 18.265625 47.953125 
Q 19.78125 49.8125 21.78125 51.09375 
Q 23.78125 52.390625 26.359375 53.09375 
Q 28.953125 53.8125 32.375 53.8125 
Q 36.765625 53.8125 39.9375 52.734375 
Q 43.109375 51.65625 45.15625 49.40625 
Q 47.21875 47.171875 48.171875 43.625 
Q 49.125 40.09375 49.125 35.203125 
L 49.125 0 
z
" id="LiberationSans-110"/>
     </defs>
     <g style="fill:#262626;" transform="translate(376.917188 26.180156)scale(0.13 -0.13)">
      <use xlink:href="#LiberationSans-70"/>
      <use x="61.083984" xlink:href="#LiberationSans-97"/>
      <use x="116.699219" xlink:href="#LiberationSans-117"/>
      <use x="172.314453" xlink:href="#LiberationSans-108"/>
      <use x="194.53125" xlink:href="#LiberationSans-116"/>
      <use x="222.314453" xlink:href="#LiberationSans-50"/>
      <use x="277.929688" xlink:href="#LiberationSans-58"/>
      <use x="305.712891" xlink:href="#LiberationSans-32"/>
      <use x="333.496094" xlink:href="#LiberationSans-112"/>
      <use x="389.111328" xlink:href="#LiberationSans-111"/>
      <use x="444.726562" xlink:href="#LiberationSans-108"/>
      <use x="466.943359" xlink:href="#LiberationSans-101"/>
      <use x="522.558594" xlink:href="#LiberationSans-32"/>
      <use x="550.341797" xlink:href="#LiberationSans-112"/>
      <use x="605.957031" xlink:href="#LiberationSans-111"/>
      <use x="661.572266" xlink:href="#LiberationSans-105"/>
      <use x="683.789062" xlink:href="#LiberationSans-110"/>
      <use x="739.404297" xlink:href="#LiberationSans-116"/>
     </g>
    </g>
    <g id="line2d_43">
     <path d="M 340.517188 40.248594 
L 366.517188 40.248594 
" style="fill:none;stroke:#015482;stroke-linecap:round;stroke-width:1.5;"/>
    </g>
    <g id="line2d_44"/>
    <g id="text_10">
     <!-- Fault2: azimuth/dip -->
     <defs>
      <path d="M 2.390625 0 
L 2.390625 6.6875 
L 34.671875 46.046875 
L 4.34375 46.046875 
L 4.34375 52.828125 
L 44.578125 52.828125 
L 44.578125 46.140625 
L 12.25 6.78125 
L 46.390625 6.78125 
L 46.390625 0 
z
" id="LiberationSans-122"/>
      <path d="M 37.5 0 
L 37.5 33.5 
Q 37.5 37.359375 37.015625 39.9375 
Q 36.53125 42.53125 35.375 44.109375 
Q 34.234375 45.703125 32.375 46.359375 
Q 30.515625 47.015625 27.828125 47.015625 
Q 25.046875 47.015625 22.796875 45.921875 
Q 20.5625 44.828125 18.96875 42.75 
Q 17.390625 40.671875 16.53125 37.625 
Q 15.671875 34.578125 15.671875 30.609375 
L 15.671875 0 
L 6.9375 0 
L 6.9375 41.546875 
Q 6.9375 43.21875 6.90625 45.046875 
Q 6.890625 46.875 6.828125 48.5 
Q 6.78125 50.140625 6.734375 51.3125 
Q 6.6875 52.484375 6.640625 52.828125 
L 14.9375 52.828125 
Q 14.984375 52.59375 15.03125 51.515625 
Q 15.09375 50.4375 15.15625 49.046875 
Q 15.234375 47.65625 15.28125 46.21875 
Q 15.328125 44.78125 15.328125 43.796875 
L 15.484375 43.796875 
Q 16.65625 46.09375 18.015625 47.953125 
Q 19.390625 49.8125 21.21875 51.09375 
Q 23.046875 52.390625 25.40625 53.09375 
Q 27.78125 53.8125 30.90625 53.8125 
Q 36.921875 53.8125 40.40625 51.421875 
Q 43.890625 49.03125 45.265625 43.796875 
L 45.40625 43.796875 
Q 46.578125 46.09375 48.046875 47.953125 
Q 49.515625 49.8125 51.46875 51.09375 
Q 53.421875 52.390625 55.859375 53.09375 
Q 58.296875 53.8125 61.421875 53.8125 
Q 65.4375 53.8125 68.328125 52.734375 
Q 71.234375 51.65625 73.09375 49.40625 
Q 74.953125 47.171875 75.828125 43.625 
Q 76.703125 40.09375 76.703125 35.203125 
L 76.703125 0 
L 68.015625 0 
L 68.015625 33.5 
Q 68.015625 37.359375 67.53125 39.9375 
Q 67.046875 42.53125 65.890625 44.109375 
Q 64.75 45.703125 62.890625 46.359375 
Q 61.03125 47.015625 58.34375 47.015625 
Q 55.5625 47.015625 53.3125 45.96875 
Q 51.078125 44.921875 49.484375 42.875 
Q 47.90625 40.828125 47.046875 37.75 
Q 46.1875 34.671875 46.1875 30.609375 
L 46.1875 0 
z
" id="LiberationSans-109"/>
      <path d="M 15.484375 43.796875 
Q 16.9375 46.484375 18.640625 48.359375 
Q 20.359375 50.25 22.40625 51.46875 
Q 24.46875 52.6875 26.90625 53.25 
Q 29.34375 53.8125 32.375 53.8125 
Q 37.453125 53.8125 40.703125 52.4375 
Q 43.953125 51.078125 45.828125 48.609375 
Q 47.703125 46.140625 48.40625 42.71875 
Q 49.125 39.3125 49.125 35.203125 
L 49.125 0 
L 40.28125 0 
L 40.28125 33.5 
Q 40.28125 36.859375 39.859375 39.390625 
Q 39.453125 41.9375 38.28125 43.625 
Q 37.109375 45.3125 34.953125 46.15625 
Q 32.8125 47.015625 29.390625 47.015625 
Q 26.265625 47.015625 23.75 45.890625 
Q 21.234375 44.78125 19.453125 42.71875 
Q 17.671875 40.671875 16.6875 37.734375 
Q 15.71875 34.8125 15.71875 31.15625 
L 15.71875 0 
L 6.9375 0 
L 6.9375 72.46875 
L 15.71875 72.46875 
L 15.71875 53.609375 
Q 15.71875 52 15.671875 50.390625 
Q 15.625 48.78125 15.546875 47.40625 
Q 15.484375 46.046875 15.421875 45.09375 
Q 15.375 44.140625 15.328125 43.796875 
z
" id="LiberationSans-104"/>
      <path d="M 0 -0.984375 
L 20.0625 72.46875 
L 27.78125 72.46875 
L 7.90625 -0.984375 
z
" id="LiberationSans-47"/>
      <path d="M 40.09375 8.5 
Q 37.640625 3.421875 33.609375 1.21875 
Q 29.59375 -0.984375 23.640625 -0.984375 
Q 13.625 -0.984375 8.90625 5.75 
Q 4.203125 12.5 4.203125 26.171875 
Q 4.203125 53.8125 23.640625 53.8125 
Q 29.640625 53.8125 33.640625 51.609375 
Q 37.640625 49.421875 40.09375 44.625 
L 40.1875 44.625 
Q 40.1875 45.125 40.15625 46.171875 
Q 40.140625 47.21875 40.109375 48.359375 
Q 40.09375 49.515625 40.09375 50.53125 
Q 40.09375 51.5625 40.09375 52 
L 40.09375 72.46875 
L 48.875 72.46875 
L 48.875 10.890625 
Q 48.875 8.984375 48.890625 7.21875 
Q 48.921875 5.46875 48.96875 4 
Q 49.03125 2.546875 49.078125 1.484375 
Q 49.125 0.4375 49.171875 0 
L 40.765625 0 
Q 40.671875 0.484375 40.59375 1.390625 
Q 40.53125 2.296875 40.453125 3.46875 
Q 40.375 4.640625 40.328125 5.9375 
Q 40.28125 7.234375 40.28125 8.5 
z
M 13.421875 26.46875 
Q 13.421875 21 14.109375 17.09375 
Q 14.796875 13.1875 16.3125 10.671875 
Q 17.828125 8.15625 20.171875 6.984375 
Q 22.515625 5.8125 25.875 5.8125 
Q 29.34375 5.8125 32 6.9375 
Q 34.671875 8.0625 36.453125 10.578125 
Q 38.234375 13.09375 39.15625 17.140625 
Q 40.09375 21.1875 40.09375 27.046875 
Q 40.09375 32.671875 39.15625 36.546875 
Q 38.234375 40.4375 36.421875 42.828125 
Q 34.625 45.21875 32 46.265625 
Q 29.390625 47.3125 25.984375 47.3125 
Q 22.75 47.3125 20.40625 46.1875 
Q 18.0625 45.0625 16.5 42.578125 
Q 14.9375 40.09375 14.171875 36.109375 
Q 13.421875 32.125 13.421875 26.46875 
z
" id="LiberationSans-100"/>
     </defs>
     <g style="fill:#262626;" transform="translate(376.917188 44.798594)scale(0.13 -0.13)">
      <use xlink:href="#LiberationSans-70"/>
      <use x="61.083984" xlink:href="#LiberationSans-97"/>
      <use x="116.699219" xlink:href="#LiberationSans-117"/>
      <use x="172.314453" xlink:href="#LiberationSans-108"/>
      <use x="194.53125" xlink:href="#LiberationSans-116"/>
      <use x="222.314453" xlink:href="#LiberationSans-50"/>
      <use x="277.929688" xlink:href="#LiberationSans-58"/>
      <use x="305.712891" xlink:href="#LiberationSans-32"/>
      <use x="333.496094" xlink:href="#LiberationSans-97"/>
      <use x="389.111328" xlink:href="#LiberationSans-122"/>
      <use x="439.111328" xlink:href="#LiberationSans-105"/>
      <use x="461.328125" xlink:href="#LiberationSans-109"/>
      <use x="544.628906" xlink:href="#LiberationSans-117"/>
      <use x="600.244141" xlink:href="#LiberationSans-116"/>
      <use x="628.027344" xlink:href="#LiberationSans-104"/>
      <use x="683.642578" xlink:href="#LiberationSans-47"/>
      <use x="711.425781" xlink:href="#LiberationSans-100"/>
      <use x="767.041016" xlink:href="#LiberationSans-105"/>
      <use x="789.257812" xlink:href="#LiberationSans-112"/>
     </g>
    </g>
   </g>
  </g>
 </g>
 <defs>
  <clipPath id="p67d0aa7644">
   <path d="M 158.242813 272.359219 
C 190.464989 272.359219 221.371767 259.557212 244.156286 236.772693 
C 266.940806 213.988173 279.742813 183.081395 279.742813 150.859219 
C 279.742813 118.637042 266.940806 87.730264 244.156286 64.945745 
C 221.371767 42.161225 190.464989 29.359219 158.242813 29.359219 
C 126.020636 29.359219 95.113858 42.161225 72.329339 64.945745 
C 49.544819 87.730264 36.742812 118.637042 36.742812 150.859219 
C 36.742812 183.081395 49.544819 213.988173 72.329339 236.772693 
C 95.113858 259.557212 126.020636 272.359219 158.242813 272.359219 
z
"/>
  </clipPath>
 </defs>
</svg>
