<?xml version="1.0" encoding="utf-8" standalone="no"?>
<!DOCTYPE svg PUBLIC "-//W3C//DTD SVG 1.1//EN"
  "http://www.w3.org/Graphics/SVG/1.1/DTD/svg11.dtd">
<!-- Created with matplotlib (https://matplotlib.org/) -->
<svg height="360pt" version="1.1" viewBox="0 0 360 360" width="360pt" xmlns="http://www.w3.org/2000/svg" xmlns:xlink="http://www.w3.org/1999/xlink">
 <defs>
  <style type="text/css">
*{stroke-linecap:butt;stroke-linejoin:round;}
  </style>
 </defs>
 <g id="figure_1">
  <g id="patch_1">
   <path d="M 0 360 
L 360 360 
L 360 0 
L 0 0 
z
" style="fill:#ffffff;"/>
  </g>
  <g id="axes_1">
   <g id="matplotlib.axis_1">
    <g id="xtick_1">
     <g id="text_1">
      <!-- 0° -->
      <defs>
       <path d="M 51.703125 34.421875 
Q 51.703125 24.515625 49.828125 17.75 
Q 47.953125 10.984375 44.703125 6.8125 
Q 41.453125 2.640625 37.0625 0.828125 
Q 32.671875 -0.984375 27.6875 -0.984375 
Q 22.65625 -0.984375 18.3125 0.828125 
Q 13.96875 2.640625 10.765625 6.78125 
Q 7.5625 10.9375 5.734375 17.703125 
Q 3.90625 24.46875 3.90625 34.421875 
Q 3.90625 44.828125 5.734375 51.640625 
Q 7.5625 58.453125 10.78125 62.5 
Q 14.015625 66.546875 18.40625 68.1875 
Q 22.796875 69.828125 27.984375 69.828125 
Q 32.90625 69.828125 37.21875 68.1875 
Q 41.546875 66.546875 44.765625 62.5 
Q 48 58.453125 49.84375 51.640625 
Q 51.703125 44.828125 51.703125 34.421875 
z
M 42.78125 34.421875 
Q 42.78125 42.625 41.796875 48.0625 
Q 40.828125 53.515625 38.921875 56.765625 
Q 37.015625 60.015625 34.25 61.359375 
Q 31.5 62.703125 27.984375 62.703125 
Q 24.265625 62.703125 21.4375 61.328125 
Q 18.609375 59.96875 16.671875 56.71875 
Q 14.75 53.46875 13.765625 48.015625 
Q 12.796875 42.578125 12.796875 34.421875 
Q 12.796875 26.515625 13.796875 21.09375 
Q 14.796875 15.671875 16.71875 12.375 
Q 18.65625 9.078125 21.4375 7.640625 
Q 24.21875 6.203125 27.78125 6.203125 
Q 31.25 6.203125 34.03125 7.640625 
Q 36.8125 9.078125 38.734375 12.375 
Q 40.671875 15.671875 41.71875 21.09375 
Q 42.78125 26.515625 42.78125 34.421875 
z
" id="LiberationSans-48"/>
       <path d="M 33.984375 55.90625 
Q 33.984375 53.03125 32.875 50.484375 
Q 31.78125 47.953125 29.875 46.0625 
Q 27.984375 44.1875 25.421875 43.09375 
Q 22.859375 42 19.96875 42 
Q 17.09375 42 14.546875 43.09375 
Q 12.015625 44.1875 10.109375 46.0625 
Q 8.203125 47.953125 7.078125 50.484375 
Q 5.953125 53.03125 5.953125 55.90625 
Q 5.953125 58.84375 7.078125 61.375 
Q 8.203125 63.921875 10.109375 65.796875 
Q 12.015625 67.671875 14.546875 68.75 
Q 17.09375 69.828125 19.96875 69.828125 
Q 22.859375 69.828125 25.421875 68.75 
Q 27.984375 67.671875 29.875 65.796875 
Q 31.78125 63.921875 32.875 61.375 
Q 33.984375 58.84375 33.984375 55.90625 
z
M 28.65625 55.90625 
Q 28.65625 57.71875 28 59.328125 
Q 27.34375 60.9375 26.171875 62.125 
Q 25 63.328125 23.40625 64.015625 
Q 21.828125 64.703125 19.96875 64.703125 
Q 18.171875 64.703125 16.578125 64.015625 
Q 14.984375 63.328125 13.8125 62.125 
Q 12.640625 60.9375 11.953125 59.328125 
Q 11.28125 57.71875 11.28125 55.90625 
Q 11.28125 54.109375 11.953125 52.515625 
Q 12.640625 50.921875 13.8125 49.71875 
Q 14.984375 48.53125 16.578125 47.828125 
Q 18.171875 47.125 19.96875 47.125 
Q 21.828125 47.125 23.40625 47.828125 
Q 25 48.53125 26.171875 49.71875 
Q 27.34375 50.921875 28 52.515625 
Q 28.65625 54.109375 28.65625 55.90625 
z
" id="LiberationSans-176"/>
      </defs>
      <g style="fill:#262626;" transform="translate(178.286406 30.461719)scale(0.13 -0.13)">
       <use xlink:href="#LiberationSans-48"/>
       <use x="55.615234" xlink:href="#LiberationSans-176"/>
      </g>
     </g>
    </g>
    <g id="xtick_2">
     <g id="text_2">
      <!-- 45° -->
      <defs>
       <path d="M 43.015625 15.578125 
L 43.015625 0 
L 34.71875 0 
L 34.71875 15.578125 
L 2.296875 15.578125 
L 2.296875 22.40625 
L 33.796875 68.796875 
L 43.015625 68.796875 
L 43.015625 22.515625 
L 52.6875 22.515625 
L 52.6875 15.578125 
z
M 34.71875 58.890625 
Q 34.625 58.640625 34.234375 57.9375 
Q 33.84375 57.234375 33.34375 56.34375 
Q 32.859375 55.46875 32.34375 54.5625 
Q 31.84375 53.65625 31.453125 53.078125 
L 13.8125 27.09375 
Q 13.578125 26.703125 13.109375 26.0625 
Q 12.640625 25.4375 12.15625 24.78125 
Q 11.671875 24.125 11.171875 23.484375 
Q 10.6875 22.859375 10.40625 22.515625 
L 34.71875 22.515625 
z
" id="LiberationSans-52"/>
       <path d="M 51.421875 22.40625 
Q 51.421875 17.234375 49.859375 12.9375 
Q 48.296875 8.640625 45.21875 5.53125 
Q 42.140625 2.4375 37.578125 0.71875 
Q 33.015625 -0.984375 27 -0.984375 
Q 21.578125 -0.984375 17.546875 0.28125 
Q 13.53125 1.5625 10.734375 3.78125 
Q 7.953125 6 6.3125 8.984375 
Q 4.6875 11.96875 4 15.375 
L 12.890625 16.40625 
Q 13.421875 14.453125 14.390625 12.625 
Q 15.375 10.796875 17.0625 9.34375 
Q 18.75 7.90625 21.21875 7.046875 
Q 23.6875 6.203125 27.203125 6.203125 
Q 30.609375 6.203125 33.390625 7.25 
Q 36.1875 8.296875 38.15625 10.34375 
Q 40.140625 12.40625 41.203125 15.375 
Q 42.28125 18.359375 42.28125 22.21875 
Q 42.28125 25.390625 41.25 28.046875 
Q 40.234375 30.71875 38.328125 32.640625 
Q 36.421875 34.578125 33.65625 35.640625 
Q 30.90625 36.71875 27.390625 36.71875 
Q 25.203125 36.71875 23.34375 36.328125 
Q 21.484375 35.9375 19.890625 35.25 
Q 18.3125 34.578125 17.015625 33.671875 
Q 15.71875 32.765625 14.59375 31.78125 
L 6 31.78125 
L 8.296875 68.796875 
L 47.40625 68.796875 
L 47.40625 61.328125 
L 16.3125 61.328125 
L 14.984375 39.5 
Q 17.328125 41.3125 20.84375 42.59375 
Q 24.359375 43.890625 29.203125 43.890625 
Q 34.328125 43.890625 38.421875 42.328125 
Q 42.53125 40.765625 45.40625 37.90625 
Q 48.296875 35.0625 49.859375 31.109375 
Q 51.421875 27.15625 51.421875 22.40625 
z
" id="LiberationSans-53"/>
      </defs>
      <g style="fill:#262626;" transform="translate(282.152028 74.981488)scale(0.13 -0.13)">
       <use xlink:href="#LiberationSans-52"/>
       <use x="55.615234" xlink:href="#LiberationSans-53"/>
       <use x="111.230469" xlink:href="#LiberationSans-176"/>
      </g>
     </g>
    </g>
    <g id="xtick_3">
     <g id="text_3">
      <!-- 90° -->
      <defs>
       <path d="M 50.875 35.796875 
Q 50.875 26.609375 49.140625 19.703125 
Q 47.40625 12.796875 44.1875 8.203125 
Q 40.96875 3.609375 36.34375 1.3125 
Q 31.734375 -0.984375 25.984375 -0.984375 
Q 22.015625 -0.984375 18.84375 -0.171875 
Q 15.671875 0.640625 13.171875 2.34375 
Q 10.6875 4.046875 8.921875 6.78125 
Q 7.171875 9.515625 6.109375 13.375 
L 14.5 14.703125 
Q 15.875 10.25 18.78125 8.171875 
Q 21.6875 6.109375 26.125 6.109375 
Q 29.6875 6.109375 32.640625 7.78125 
Q 35.59375 9.46875 37.671875 12.84375 
Q 39.75 16.21875 40.921875 21.296875 
Q 42.09375 26.375 42.1875 33.203125 
Q 41.15625 30.90625 39.375 29.09375 
Q 37.59375 27.296875 35.328125 26.046875 
Q 33.0625 24.8125 30.421875 24.140625 
Q 27.78125 23.484375 25.09375 23.484375 
Q 20.40625 23.484375 16.625 25.171875 
Q 12.84375 26.859375 10.203125 29.875 
Q 7.5625 32.90625 6.125 37.171875 
Q 4.6875 41.453125 4.6875 46.6875 
Q 4.6875 52 6.21875 56.296875 
Q 7.765625 60.59375 10.6875 63.59375 
Q 13.625 66.609375 17.890625 68.21875 
Q 22.171875 69.828125 27.59375 69.828125 
Q 39.0625 69.828125 44.96875 61.328125 
Q 50.875 52.828125 50.875 35.796875 
z
M 41.3125 44.28125 
Q 41.3125 48.09375 40.40625 51.453125 
Q 39.5 54.828125 37.71875 57.3125 
Q 35.9375 59.8125 33.328125 61.25 
Q 30.71875 62.703125 27.296875 62.703125 
Q 24.125 62.703125 21.578125 61.578125 
Q 19.046875 60.453125 17.28125 58.375 
Q 15.53125 56.296875 14.578125 53.3125 
Q 13.625 50.34375 13.625 46.6875 
Q 13.625 43.21875 14.46875 40.234375 
Q 15.328125 37.25 17.03125 35.078125 
Q 18.75 32.90625 21.28125 31.65625 
Q 23.828125 30.421875 27.203125 30.421875 
Q 29.640625 30.421875 32.15625 31.25 
Q 34.671875 32.078125 36.6875 33.78125 
Q 38.71875 35.5 40.015625 38.109375 
Q 41.3125 40.71875 41.3125 44.28125 
z
" id="LiberationSans-57"/>
      </defs>
      <g style="fill:#262626;" transform="translate(326.671797 182.461719)scale(0.13 -0.13)">
       <use xlink:href="#LiberationSans-57"/>
       <use x="55.615234" xlink:href="#LiberationSans-48"/>
       <use x="111.230469" xlink:href="#LiberationSans-176"/>
      </g>
     </g>
    </g>
    <g id="xtick_4">
     <g id="text_4">
      <!-- 135° -->
      <defs>
       <path d="M 7.625 0 
L 7.625 7.46875 
L 25.140625 7.46875 
L 25.140625 60.40625 
L 9.625 49.3125 
L 9.625 57.625 
L 25.875 68.796875 
L 33.984375 68.796875 
L 33.984375 7.46875 
L 50.734375 7.46875 
L 50.734375 0 
z
" id="LiberationSans-49"/>
       <path d="M 51.21875 19 
Q 51.21875 14.265625 49.671875 10.546875 
Q 48.140625 6.84375 45.1875 4.265625 
Q 42.234375 1.703125 37.859375 0.359375 
Q 33.5 -0.984375 27.875 -0.984375 
Q 21.484375 -0.984375 17.109375 0.609375 
Q 12.75 2.203125 9.90625 4.8125 
Q 7.078125 7.421875 5.65625 10.765625 
Q 4.25 14.109375 3.8125 17.671875 
L 12.890625 18.5 
Q 13.28125 15.765625 14.328125 13.515625 
Q 15.375 11.28125 17.1875 9.671875 
Q 19 8.0625 21.625 7.171875 
Q 24.265625 6.296875 27.875 6.296875 
Q 34.515625 6.296875 38.296875 9.5625 
Q 42.09375 12.84375 42.09375 19.28125 
Q 42.09375 23.09375 40.40625 25.40625 
Q 38.71875 27.734375 36.203125 29.03125 
Q 33.6875 30.328125 30.734375 30.765625 
Q 27.78125 31.203125 25.296875 31.203125 
L 20.3125 31.203125 
L 20.3125 38.8125 
L 25.09375 38.8125 
Q 27.59375 38.8125 30.265625 39.328125 
Q 32.953125 39.84375 35.171875 41.1875 
Q 37.40625 42.53125 38.84375 44.828125 
Q 40.28125 47.125 40.28125 50.6875 
Q 40.28125 56.203125 37.03125 59.390625 
Q 33.796875 62.59375 27.390625 62.59375 
Q 21.578125 62.59375 17.984375 59.609375 
Q 14.40625 56.640625 13.8125 51.21875 
L 4.984375 51.90625 
Q 5.515625 56.453125 7.46875 59.8125 
Q 9.421875 63.1875 12.421875 65.40625 
Q 15.4375 67.625 19.28125 68.71875 
Q 23.140625 69.828125 27.484375 69.828125 
Q 33.25 69.828125 37.390625 68.375 
Q 41.546875 66.9375 44.1875 64.46875 
Q 46.828125 62.015625 48.0625 58.6875 
Q 49.3125 55.375 49.3125 51.609375 
Q 49.3125 48.578125 48.484375 45.9375 
Q 47.65625 43.3125 45.890625 41.203125 
Q 44.140625 39.109375 41.421875 37.59375 
Q 38.71875 36.078125 34.90625 35.296875 
L 34.90625 35.109375 
Q 39.0625 34.671875 42.140625 33.21875 
Q 45.21875 31.78125 47.21875 29.625 
Q 49.21875 27.484375 50.21875 24.75 
Q 51.21875 22.015625 51.21875 19 
z
" id="LiberationSans-51"/>
      </defs>
      <g style="fill:#262626;" transform="translate(278.537418 289.941949)scale(0.13 -0.13)">
       <use xlink:href="#LiberationSans-49"/>
       <use x="55.615234" xlink:href="#LiberationSans-51"/>
       <use x="111.230469" xlink:href="#LiberationSans-53"/>
       <use x="166.845703" xlink:href="#LiberationSans-176"/>
      </g>
     </g>
    </g>
    <g id="xtick_5">
     <g id="text_5">
      <!-- 180° -->
      <defs>
       <path d="M 51.265625 19.1875 
Q 51.265625 14.796875 49.875 11.109375 
Q 48.484375 7.421875 45.625 4.734375 
Q 42.78125 2.046875 38.328125 0.53125 
Q 33.890625 -0.984375 27.828125 -0.984375 
Q 21.78125 -0.984375 17.359375 0.53125 
Q 12.9375 2.046875 10.03125 4.703125 
Q 7.125 7.375 5.734375 11.0625 
Q 4.34375 14.75 4.34375 19.09375 
Q 4.34375 22.859375 5.484375 25.78125 
Q 6.640625 28.71875 8.5625 30.828125 
Q 10.5 32.953125 12.96875 34.25 
Q 15.4375 35.546875 18.0625 35.984375 
L 18.0625 36.1875 
Q 15.1875 36.859375 12.90625 38.375 
Q 10.640625 39.890625 9.09375 42.015625 
Q 7.5625 44.140625 6.75 46.71875 
Q 5.953125 49.3125 5.953125 52.203125 
Q 5.953125 55.8125 7.34375 59 
Q 8.734375 62.203125 11.46875 64.625 
Q 14.203125 67.046875 18.25 68.4375 
Q 22.3125 69.828125 27.640625 69.828125 
Q 33.25 69.828125 37.375 68.40625 
Q 41.5 67 44.203125 64.578125 
Q 46.921875 62.15625 48.234375 58.9375 
Q 49.5625 55.71875 49.5625 52.09375 
Q 49.5625 49.265625 48.75 46.671875 
Q 47.953125 44.09375 46.40625 41.96875 
Q 44.875 39.84375 42.59375 38.34375 
Q 40.328125 36.859375 37.359375 36.28125 
L 37.359375 36.078125 
Q 40.328125 35.59375 42.859375 34.296875 
Q 45.40625 33.015625 47.265625 30.890625 
Q 49.125 28.765625 50.1875 25.828125 
Q 51.265625 22.90625 51.265625 19.1875 
z
M 40.4375 51.609375 
Q 40.4375 54.203125 39.765625 56.34375 
Q 39.109375 58.5 37.59375 60.03125 
Q 36.078125 61.578125 33.640625 62.421875 
Q 31.203125 63.28125 27.640625 63.28125 
Q 24.171875 63.28125 21.78125 62.421875 
Q 19.390625 61.578125 17.84375 60.03125 
Q 16.3125 58.5 15.625 56.34375 
Q 14.9375 54.203125 14.9375 51.609375 
Q 14.9375 49.5625 15.46875 47.40625 
Q 16.015625 45.265625 17.421875 43.5 
Q 18.84375 41.75 21.328125 40.625 
Q 23.828125 39.5 27.734375 39.5 
Q 31.890625 39.5 34.40625 40.625 
Q 36.921875 41.75 38.25 43.5 
Q 39.59375 45.265625 40.015625 47.40625 
Q 40.4375 49.5625 40.4375 51.609375 
z
M 42.140625 20.015625 
Q 42.140625 22.515625 41.453125 24.828125 
Q 40.765625 27.15625 39.109375 28.9375 
Q 37.453125 30.71875 34.640625 31.8125 
Q 31.84375 32.90625 27.640625 32.90625 
Q 23.78125 32.90625 21.0625 31.8125 
Q 18.359375 30.71875 16.671875 28.90625 
Q 14.984375 27.09375 14.203125 24.71875 
Q 13.421875 22.359375 13.421875 19.828125 
Q 13.421875 16.65625 14.203125 14.03125 
Q 14.984375 11.421875 16.6875 9.546875 
Q 18.40625 7.671875 21.1875 6.640625 
Q 23.96875 5.609375 27.9375 5.609375 
Q 31.9375 5.609375 34.671875 6.640625 
Q 37.40625 7.671875 39.0625 9.546875 
Q 40.71875 11.421875 41.421875 14.078125 
Q 42.140625 16.75 42.140625 20.015625 
z
" id="LiberationSans-56"/>
      </defs>
      <g style="fill:#262626;" transform="translate(171.057187 334.461719)scale(0.13 -0.13)">
       <use xlink:href="#LiberationSans-49"/>
       <use x="55.615234" xlink:href="#LiberationSans-56"/>
       <use x="111.230469" xlink:href="#LiberationSans-48"/>
       <use x="166.845703" xlink:href="#LiberationSans-176"/>
      </g>
     </g>
    </g>
    <g id="xtick_6">
     <g id="text_6">
      <!-- 225° -->
      <defs>
       <path d="M 5.03125 0 
L 5.03125 6.203125 
Q 7.515625 11.921875 11.109375 16.28125 
Q 14.703125 20.65625 18.65625 24.1875 
Q 22.609375 27.734375 26.484375 30.765625 
Q 30.375 33.796875 33.5 36.8125 
Q 36.625 39.84375 38.546875 43.15625 
Q 40.484375 46.484375 40.484375 50.6875 
Q 40.484375 53.609375 39.59375 55.828125 
Q 38.71875 58.0625 37.0625 59.5625 
Q 35.40625 61.078125 33.078125 61.828125 
Q 30.765625 62.59375 27.9375 62.59375 
Q 25.296875 62.59375 22.96875 61.859375 
Q 20.65625 61.140625 18.84375 59.671875 
Q 17.046875 58.203125 15.890625 56.03125 
Q 14.75 53.859375 14.40625 50.984375 
L 5.421875 51.8125 
Q 5.859375 55.515625 7.46875 58.78125 
Q 9.078125 62.0625 11.90625 64.53125 
Q 14.75 67 18.71875 68.40625 
Q 22.703125 69.828125 27.9375 69.828125 
Q 33.0625 69.828125 37.0625 68.609375 
Q 41.0625 67.390625 43.8125 64.984375 
Q 46.578125 62.59375 48.046875 59.078125 
Q 49.515625 55.5625 49.515625 50.984375 
Q 49.515625 47.515625 48.265625 44.390625 
Q 47.015625 41.265625 44.9375 38.421875 
Q 42.875 35.59375 40.140625 32.953125 
Q 37.40625 30.328125 34.421875 27.8125 
Q 31.453125 25.296875 28.421875 22.828125 
Q 25.390625 20.359375 22.71875 17.859375 
Q 20.0625 15.375 17.96875 12.8125 
Q 15.875 10.25 14.703125 7.46875 
L 50.59375 7.46875 
L 50.59375 0 
z
" id="LiberationSans-50"/>
      </defs>
      <g style="fill:#262626;" transform="translate(63.576957 289.941949)scale(0.13 -0.13)">
       <use xlink:href="#LiberationSans-50"/>
       <use x="55.615234" xlink:href="#LiberationSans-50"/>
       <use x="111.230469" xlink:href="#LiberationSans-53"/>
       <use x="166.845703" xlink:href="#LiberationSans-176"/>
      </g>
     </g>
    </g>
    <g id="xtick_7">
     <g id="text_7">
      <!-- 270° -->
      <defs>
       <path d="M 50.59375 61.671875 
Q 45.40625 53.765625 41.0625 46.453125 
Q 36.71875 39.15625 33.59375 31.75 
Q 30.46875 24.359375 28.734375 16.578125 
Q 27 8.796875 27 0 
L 17.828125 0 
Q 17.828125 8.25 19.78125 16.1875 
Q 21.734375 24.125 25.046875 31.765625 
Q 28.375 39.40625 32.765625 46.78125 
Q 37.15625 54.15625 42.09375 61.328125 
L 5.125 61.328125 
L 5.125 68.796875 
L 50.59375 68.796875 
z
" id="LiberationSans-55"/>
      </defs>
      <g style="fill:#262626;" transform="translate(19.057187 182.461719)scale(0.13 -0.13)">
       <use xlink:href="#LiberationSans-50"/>
       <use x="55.615234" xlink:href="#LiberationSans-55"/>
       <use x="111.230469" xlink:href="#LiberationSans-48"/>
       <use x="166.845703" xlink:href="#LiberationSans-176"/>
      </g>
     </g>
    </g>
    <g id="xtick_8">
     <g id="text_8">
      <!-- 315° -->
      <g style="fill:#262626;" transform="translate(63.576957 74.981488)scale(0.13 -0.13)">
       <use xlink:href="#LiberationSans-51"/>
       <use x="55.615234" xlink:href="#LiberationSans-49"/>
       <use x="111.230469" xlink:href="#LiberationSans-53"/>
       <use x="166.845703" xlink:href="#LiberationSans-176"/>
      </g>
     </g>
    </g>
   </g>
   <g id="matplotlib.axis_2"/>
  </g>
  <g id="axes_2">
   <g id="patch_2">
    <path d="M 184.5 315 
C 220.541101 315 255.110904 300.680719 280.595812 275.195812 
C 306.080719 249.710904 320.4 215.141101 320.4 179.1 
C 320.4 143.058899 306.080719 108.489096 280.595812 83.004188 
C 255.110904 57.519281 220.541101 43.2 184.5 43.2 
C 148.458899 43.2 113.889096 57.519281 88.404188 83.004188 
C 62.919281 108.489096 48.6 143.058899 48.6 179.1 
C 48.6 215.141101 62.919281 249.710904 88.404188 275.195812 
C 113.889096 300.680719 148.458899 315 184.5 315 
z
" style="fill:#ffffff;"/>
   </g>
   <g id="matplotlib.axis_3">
    <g id="xtick_9">
     <g id="line2d_1">
      <path clip-path="url(#p06d89b4201)" d="M 160.901213 312.935374 
L 148.563397 310.162468 
L 136.536736 306.254769 
L 124.925361 301.246111 
L 113.829808 295.17986 
L 103.346147 288.108542 
L 93.565151 280.093382 
L 84.571506 271.203779 
L 76.443084 261.516703 
L 69.250264 251.116028 
L 63.055324 240.091809 
L 57.911903 228.539497 
L 53.864536 216.559117 
L 50.948264 204.2544 
L 49.18834 191.731886 
L 48.6 179.1 
L 49.18834 166.468114 
L 50.948264 153.9456 
L 53.864536 141.640883 
L 57.911903 129.660503 
L 63.055324 118.108191 
L 69.250264 107.083972 
L 76.443084 96.683297 
L 84.571506 86.996221 
L 93.565151 78.106618 
L 103.346147 70.091458 
L 113.829808 63.02014 
L 124.925361 56.953889 
L 136.536736 51.945231 
L 148.563397 48.037532 
L 160.901213 45.264626 
" style="fill:none;stroke:#cccccc;stroke-linecap:round;stroke-width:1.3;"/>
     </g>
    </g>
    <g id="xtick_10">
     <g id="line2d_2">
      <path clip-path="url(#p06d89b4201)" d="M 161.602391 310.962075 
L 149.894944 307.253189 
L 138.649506 302.528795 
L 127.943562 296.84672 
L 117.84776 290.269052 
L 108.42605 282.861417 
L 99.735871 274.692365 
L 91.828352 265.832833 
L 84.748532 256.355695 
L 78.535573 246.335379 
L 73.222965 235.84755 
L 68.83871 224.968839 
L 65.405485 213.776618 
L 62.940782 202.348817 
L 61.457017 190.763755 
L 60.961606 179.1 
L 61.457017 167.436245 
L 62.940782 155.851183 
L 65.405485 144.423382 
L 68.83871 133.231161 
L 73.222965 122.35245 
L 78.535573 111.864621 
L 84.748532 101.844305 
L 91.828352 92.367167 
L 99.735871 83.507635 
L 108.42605 75.338583 
L 117.84776 67.930948 
L 127.943562 61.35328 
L 138.649506 55.671205 
L 149.894944 50.946811 
L 161.602391 47.237925 
" style="fill:none;stroke:#cccccc;stroke-linecap:round;stroke-width:1.3;"/>
     </g>
    </g>
    <g id="xtick_11">
     <g id="line2d_3">
      <path clip-path="url(#p06d89b4201)" d="M 162.954959 309.129754 
L 152.161372 304.609643 
L 141.925648 299.211932 
L 132.295108 293.005215 
L 123.310629 286.057386 
L 115.007428 278.43538 
L 107.415751 270.205038 
L 100.561466 261.431053 
L 94.466565 252.176993 
L 89.14959 242.50536 
L 84.625984 232.477684 
L 80.908374 222.154644 
L 78.006804 211.596193 
L 75.928908 200.8617 
L 74.680051 190.010092 
L 74.263414 179.1 
L 74.680051 168.189908 
L 75.928908 157.3383 
L 78.006804 146.603807 
L 80.908374 136.045356 
L 84.625984 125.722316 
L 89.14959 115.69464 
L 94.466565 106.023007 
L 100.561466 96.768947 
L 107.415751 87.994962 
L 115.007428 79.76462 
L 123.310629 72.142614 
L 132.295108 65.194785 
L 141.925648 58.988068 
L 152.161372 53.590357 
L 162.954959 49.070246 
" style="fill:none;stroke:#cccccc;stroke-linecap:round;stroke-width:1.3;"/>
     </g>
    </g>
    <g id="xtick_12">
     <g id="line2d_4">
      <path clip-path="url(#p06d89b4201)" d="M 164.896181 307.478202 
L 155.251554 302.272425 
L 146.204319 296.331169 
L 137.774157 289.722823 
L 129.976938 282.511828 
L 122.825514 274.759101 
L 116.330349 266.522455 
L 110.499991 257.857015 
L 105.341436 248.815596 
L 100.860407 239.449059 
L 97.061558 229.806637 
L 93.948625 219.936225 
L 91.524541 209.884644 
L 89.791518 199.697887 
L 88.751096 189.421342 
L 88.404188 179.1 
L 88.751096 168.778658 
L 89.791518 158.502113 
L 91.524541 148.315356 
L 93.948625 138.263775 
L 97.061558 128.393363 
L 100.860407 118.750941 
L 105.341436 109.384404 
L 110.499991 100.342985 
L 116.330349 91.677545 
L 122.825514 83.440899 
L 129.976938 75.688172 
L 137.774157 68.477177 
L 146.204319 61.868831 
L 155.251554 55.927575 
L 164.896181 50.721798 
" style="fill:none;stroke:#cccccc;stroke-linecap:round;stroke-width:1.3;"/>
     </g>
    </g>
    <g id="xtick_13">
     <g id="line2d_5">
      <path clip-path="url(#p06d89b4201)" d="M 167.353887 306.038381 
L 159.049126 300.268589 
L 151.328486 293.898247 
L 144.190379 286.987959 
L 137.632691 279.593196 
L 131.653138 271.765191 
L 126.249485 263.551694 
L 121.419678 254.9976 
L 117.161905 246.145483 
L 113.474626 237.036037 
L 110.356565 227.708449 
L 107.806701 218.200708 
L 105.824239 208.549873 
L 104.408593 198.792297 
L 103.559362 188.963831 
L 103.27631 179.1 
L 103.559362 169.236169 
L 104.408593 159.407703 
L 105.824239 149.650127 
L 107.806701 139.999292 
L 110.356565 130.491551 
L 113.474626 121.163963 
L 117.161905 112.054517 
L 121.419678 103.2024 
L 126.249485 94.648306 
L 131.653138 86.434809 
L 137.632691 78.606804 
L 144.190379 71.212041 
L 151.328486 64.301753 
L 159.049126 57.931411 
L 167.353887 52.161619 
" style="fill:none;stroke:#cccccc;stroke-linecap:round;stroke-width:1.3;"/>
     </g>
    </g>
    <g id="xtick_14">
     <g id="line2d_6">
      <path clip-path="url(#p06d89b4201)" d="M 170.249242 304.833702 
L 163.435574 298.615288 
L 157.146511 291.915602 
L 151.367342 284.783457 
L 146.085519 277.263059 
L 141.290444 269.394999 
L 136.973249 261.217023 
L 133.126573 252.764653 
L 129.744363 244.071666 
L 126.821692 235.170476 
L 124.354597 226.092437 
L 122.33995 216.868091 
L 120.775336 207.527358 
L 119.658971 198.099704 
L 118.989629 188.614271 
L 118.766594 179.1 
L 118.989629 169.585729 
L 119.658971 160.100296 
L 120.775336 150.672642 
L 122.33995 141.331909 
L 124.354597 132.107563 
L 126.821692 123.029524 
L 129.744363 114.128334 
L 133.126573 105.435347 
L 136.973249 96.982977 
L 141.290444 88.805001 
L 146.085519 80.936941 
L 151.367342 73.416543 
L 157.146511 66.284398 
L 163.435574 59.584712 
L 170.249242 53.366298 
" style="fill:none;stroke:#cccccc;stroke-linecap:round;stroke-width:1.3;"/>
     </g>
    </g>
    <g id="xtick_15">
     <g id="line2d_7">
      <path clip-path="url(#p06d89b4201)" d="M 173.498844 303.881313 
L 168.291983 297.322793 
L 163.512251 290.380686 
L 159.140047 283.091219 
L 155.159312 275.487539 
L 151.556917 267.60048 
L 148.322152 259.459141 
L 145.446314 251.091319 
L 142.922359 242.523837 
L 140.744625 233.782785 
L 138.908606 224.893717 
L 137.410764 215.881785 
L 136.248388 206.771854 
L 135.419478 197.588582 
L 134.922665 188.356486 
L 134.757148 179.1 
L 134.922665 169.843514 
L 135.419478 160.611418 
L 136.248388 151.428146 
L 137.410764 142.318215 
L 138.908606 133.306283 
L 140.744625 124.417215 
L 142.922359 115.676163 
L 145.446314 107.108681 
L 148.322152 98.740859 
L 151.556917 90.59952 
L 155.159312 82.712461 
L 159.140047 75.108781 
L 163.512251 67.819314 
L 168.291983 60.877207 
L 173.498844 54.318687 
" style="fill:none;stroke:#cccccc;stroke-linecap:round;stroke-width:1.3;"/>
     </g>
    </g>
    <g id="xtick_16">
     <g id="line2d_8">
      <path clip-path="url(#p06d89b4201)" d="M 177.01626 303.193266 
L 173.499898 296.396853 
L 170.284374 289.288994 
L 167.3523 281.895103 
L 164.689708 274.239267 
L 162.285368 266.344656 
L 160.130242 258.233812 
L 158.217069 249.928853 
L 156.540025 241.451622 
L 155.094463 232.823792 
L 153.876703 224.066935 
L 152.883875 215.202571 
L 152.113782 206.252198 
L 151.56481 197.237311 
L 151.235856 188.17941 
L 151.126275 179.1 
L 151.235856 170.02059 
L 151.56481 160.962689 
L 152.113782 151.947802 
L 152.883875 142.997429 
L 153.876703 134.133065 
L 155.094463 125.376208 
L 156.540025 116.748378 
L 158.217069 108.271147 
L 160.130242 99.966188 
L 162.285368 91.855344 
L 164.689708 83.960733 
L 167.3523 76.304897 
L 170.284374 68.911006 
L 173.499898 61.803147 
L 177.01626 55.006734 
" style="fill:none;stroke:#cccccc;stroke-linecap:round;stroke-width:1.3;"/>
     </g>
    </g>
    <g id="xtick_17">
     <g id="line2d_9">
      <path clip-path="url(#p06d89b4201)" d="M 180.713137 302.777472 
L 178.941595 295.840419 
L 177.325304 288.636078 
L 175.854225 281.182646 
L 174.520381 273.498335 
L 173.317412 265.601466 
L 172.24024 257.510514 
L 171.284805 249.244146 
L 170.447871 240.821227 
L 169.726864 232.260822 
L 169.119754 223.582182 
L 168.62496 214.804732 
L 168.241275 205.948047 
L 167.967814 197.031825 
L 167.803972 188.075857 
L 167.749396 179.1 
L 167.803972 170.124143 
L 167.967814 161.168175 
L 168.241275 152.251953 
L 168.62496 143.395268 
L 169.119754 134.617818 
L 169.726864 125.939178 
L 170.447871 117.378773 
L 171.284805 108.955854 
L 172.24024 100.689486 
L 173.317412 92.598534 
L 174.520381 84.701665 
L 175.854225 77.017354 
L 177.325304 69.563922 
L 178.941595 62.359581 
L 180.713137 55.422528 
" style="fill:none;stroke:#cccccc;stroke-linecap:round;stroke-width:1.3;"/>
     </g>
    </g>
    <g id="xtick_18">
     <g id="line2d_10">
      <path clip-path="url(#p06d89b4201)" d="M 184.5 302.638394 
L 184.5 295.654818 
L 184.5 288.418811 
L 184.5 280.946044 
L 184.5 273.2527 
L 184.5 265.355443 
L 184.5 257.271376 
L 184.5 249.018007 
L 184.5 240.613211 
L 184.5 232.075191 
L 184.5 223.422439 
L 184.5 214.673694 
L 184.5 205.847904 
L 184.5 196.964185 
L 184.5 188.041775 
L 184.5 179.1 
L 184.5 170.158225 
L 184.5 161.235815 
L 184.5 152.352096 
L 184.5 143.526306 
L 184.5 134.777561 
L 184.5 126.124809 
L 184.5 117.586789 
L 184.5 109.181993 
L 184.5 100.928624 
L 184.5 92.844557 
L 184.5 84.9473 
L 184.5 77.253956 
L 184.5 69.781189 
L 184.5 62.545182 
L 184.5 55.561606 
" style="fill:none;stroke:#cccccc;stroke-linecap:round;stroke-width:1.3;"/>
     </g>
    </g>
    <g id="xtick_19">
     <g id="line2d_11">
      <path clip-path="url(#p06d89b4201)" d="M 188.286863 302.777472 
L 190.058405 295.840419 
L 191.674696 288.636078 
L 193.145775 281.182646 
L 194.479619 273.498335 
L 195.682588 265.601466 
L 196.75976 257.510514 
L 197.715195 249.244146 
L 198.552129 240.821227 
L 199.273136 232.260822 
L 199.880246 223.582182 
L 200.37504 214.804732 
L 200.758725 205.948047 
L 201.032186 197.031825 
L 201.196028 188.075857 
L 201.250604 179.1 
L 201.196028 170.124143 
L 201.032186 161.168175 
L 200.758725 152.251953 
L 200.37504 143.395268 
L 199.880246 134.617818 
L 199.273136 125.939178 
L 198.552129 117.378773 
L 197.715195 108.955854 
L 196.75976 100.689486 
L 195.682588 92.598534 
L 194.479619 84.701665 
L 193.145775 77.017354 
L 191.674696 69.563922 
L 190.058405 62.359581 
L 188.286863 55.422528 
" style="fill:none;stroke:#cccccc;stroke-linecap:round;stroke-width:1.3;"/>
     </g>
    </g>
    <g id="xtick_20">
     <g id="line2d_12">
      <path clip-path="url(#p06d89b4201)" d="M 191.98374 303.193266 
L 195.500102 296.396853 
L 198.715626 289.288994 
L 201.6477 281.895103 
L 204.310292 274.239267 
L 206.714632 266.344656 
L 208.869758 258.233812 
L 210.782931 249.928853 
L 212.459975 241.451622 
L 213.905537 232.823792 
L 215.123297 224.066935 
L 216.116125 215.202571 
L 216.886218 206.252198 
L 217.43519 197.237311 
L 217.764144 188.17941 
L 217.873725 179.1 
L 217.764144 170.02059 
L 217.43519 160.962689 
L 216.886218 151.947802 
L 216.116125 142.997429 
L 215.123297 134.133065 
L 213.905537 125.376208 
L 212.459975 116.748378 
L 210.782931 108.271147 
L 208.869758 99.966188 
L 206.714632 91.855344 
L 204.310292 83.960733 
L 201.6477 76.304897 
L 198.715626 68.911006 
L 195.500102 61.803147 
L 191.98374 55.006734 
" style="fill:none;stroke:#cccccc;stroke-linecap:round;stroke-width:1.3;"/>
     </g>
    </g>
    <g id="xtick_21">
     <g id="line2d_13">
      <path clip-path="url(#p06d89b4201)" d="M 195.501156 303.881313 
L 200.708017 297.322793 
L 205.487749 290.380686 
L 209.859953 283.091219 
L 213.840688 275.487539 
L 217.443083 267.60048 
L 220.677848 259.459141 
L 223.553686 251.091319 
L 226.077641 242.523837 
L 228.255375 233.782785 
L 230.091394 224.893717 
L 231.589236 215.881785 
L 232.751612 206.771854 
L 233.580522 197.588582 
L 234.077335 188.356486 
L 234.242852 179.1 
L 234.077335 169.843514 
L 233.580522 160.611418 
L 232.751612 151.428146 
L 231.589236 142.318215 
L 230.091394 133.306283 
L 228.255375 124.417215 
L 226.077641 115.676163 
L 223.553686 107.108681 
L 220.677848 98.740859 
L 217.443083 90.59952 
L 213.840688 82.712461 
L 209.859953 75.108781 
L 205.487749 67.819314 
L 200.708017 60.877207 
L 195.501156 54.318687 
" style="fill:none;stroke:#cccccc;stroke-linecap:round;stroke-width:1.3;"/>
     </g>
    </g>
    <g id="xtick_22">
     <g id="line2d_14">
      <path clip-path="url(#p06d89b4201)" d="M 198.750758 304.833702 
L 205.564426 298.615288 
L 211.853489 291.915602 
L 217.632658 284.783457 
L 222.914481 277.263059 
L 227.709556 269.394999 
L 232.026751 261.217023 
L 235.873427 252.764653 
L 239.255637 244.071666 
L 242.178308 235.170476 
L 244.645403 226.092437 
L 246.66005 216.868091 
L 248.224664 207.527358 
L 249.341029 198.099704 
L 250.010371 188.614271 
L 250.233406 179.1 
L 250.010371 169.585729 
L 249.341029 160.100296 
L 248.224664 150.672642 
L 246.66005 141.331909 
L 244.645403 132.107563 
L 242.178308 123.029524 
L 239.255637 114.128334 
L 235.873427 105.435347 
L 232.026751 96.982977 
L 227.709556 88.805001 
L 222.914481 80.936941 
L 217.632658 73.416543 
L 211.853489 66.284398 
L 205.564426 59.584712 
L 198.750758 53.366298 
" style="fill:none;stroke:#cccccc;stroke-linecap:round;stroke-width:1.3;"/>
     </g>
    </g>
    <g id="xtick_23">
     <g id="line2d_15">
      <path clip-path="url(#p06d89b4201)" d="M 201.646113 306.038381 
L 209.950874 300.268589 
L 217.671514 293.898247 
L 224.809621 286.987959 
L 231.367309 279.593196 
L 237.346862 271.765191 
L 242.750515 263.551694 
L 247.580322 254.9976 
L 251.838095 246.145483 
L 255.525374 237.036037 
L 258.643435 227.708449 
L 261.193299 218.200708 
L 263.175761 208.549873 
L 264.591407 198.792297 
L 265.440638 188.963831 
L 265.72369 179.1 
L 265.440638 169.236169 
L 264.591407 159.407703 
L 263.175761 149.650127 
L 261.193299 139.999292 
L 258.643435 130.491551 
L 255.525374 121.163963 
L 251.838095 112.054517 
L 247.580322 103.2024 
L 242.750515 94.648306 
L 237.346862 86.434809 
L 231.367309 78.606804 
L 224.809621 71.212041 
L 217.671514 64.301753 
L 209.950874 57.931411 
L 201.646113 52.161619 
" style="fill:none;stroke:#cccccc;stroke-linecap:round;stroke-width:1.3;"/>
     </g>
    </g>
    <g id="xtick_24">
     <g id="line2d_16">
      <path clip-path="url(#p06d89b4201)" d="M 204.103819 307.478202 
L 213.748446 302.272425 
L 222.795681 296.331169 
L 231.225843 289.722823 
L 239.023062 282.511828 
L 246.174486 274.759101 
L 252.669651 266.522455 
L 258.500009 257.857015 
L 263.658564 248.815596 
L 268.139593 239.449059 
L 271.938442 229.806637 
L 275.051375 219.936225 
L 277.475459 209.884644 
L 279.208482 199.697887 
L 280.248904 189.421342 
L 280.595812 179.1 
L 280.248904 168.778658 
L 279.208482 158.502113 
L 277.475459 148.315356 
L 275.051375 138.263775 
L 271.938442 128.393363 
L 268.139593 118.750941 
L 263.658564 109.384404 
L 258.500009 100.342985 
L 252.669651 91.677545 
L 246.174486 83.440899 
L 239.023062 75.688172 
L 231.225843 68.477177 
L 222.795681 61.868831 
L 213.748446 55.927575 
L 204.103819 50.721798 
" style="fill:none;stroke:#cccccc;stroke-linecap:round;stroke-width:1.3;"/>
     </g>
    </g>
    <g id="xtick_25">
     <g id="line2d_17">
      <path clip-path="url(#p06d89b4201)" d="M 206.045041 309.129754 
L 216.838628 304.609643 
L 227.074352 299.211932 
L 236.704892 293.005215 
L 245.689371 286.057386 
L 253.992572 278.43538 
L 261.584249 270.205038 
L 268.438534 261.431053 
L 274.533435 252.176993 
L 279.85041 242.50536 
L 284.374016 232.477684 
L 288.091626 222.154644 
L 290.993196 211.596193 
L 293.071092 200.8617 
L 294.319949 190.010092 
L 294.736586 179.1 
L 294.319949 168.189908 
L 293.071092 157.3383 
L 290.993196 146.603807 
L 288.091626 136.045356 
L 284.374016 125.722316 
L 279.85041 115.69464 
L 274.533435 106.023007 
L 268.438534 96.768947 
L 261.584249 87.994962 
L 253.992572 79.76462 
L 245.689371 72.142614 
L 236.704892 65.194785 
L 227.074352 58.988068 
L 216.838628 53.590357 
L 206.045041 49.070246 
" style="fill:none;stroke:#cccccc;stroke-linecap:round;stroke-width:1.3;"/>
     </g>
    </g>
    <g id="xtick_26">
     <g id="line2d_18">
      <path clip-path="url(#p06d89b4201)" d="M 207.397609 310.962075 
L 219.105056 307.253189 
L 230.350494 302.528795 
L 241.056438 296.84672 
L 251.15224 290.269052 
L 260.57395 282.861417 
L 269.264129 274.692365 
L 277.171648 265.832833 
L 284.251468 256.355695 
L 290.464427 246.335379 
L 295.777035 235.84755 
L 300.16129 224.968839 
L 303.594515 213.776618 
L 306.059218 202.348817 
L 307.542983 190.763755 
L 308.038394 179.1 
L 307.542983 167.436245 
L 306.059218 155.851183 
L 303.594515 144.423382 
L 300.16129 133.231161 
L 295.777035 122.35245 
L 290.464427 111.864621 
L 284.251468 101.844305 
L 277.171648 92.367167 
L 269.264129 83.507635 
L 260.57395 75.338583 
L 251.15224 67.930948 
L 241.056438 61.35328 
L 230.350494 55.671205 
L 219.105056 50.946811 
L 207.397609 47.237925 
" style="fill:none;stroke:#cccccc;stroke-linecap:round;stroke-width:1.3;"/>
     </g>
    </g>
    <g id="xtick_27">
     <g id="line2d_19">
      <path clip-path="url(#p06d89b4201)" d="M 208.098787 312.935374 
L 220.436603 310.162468 
L 232.463264 306.254769 
L 244.074639 301.246111 
L 255.170192 295.17986 
L 265.653853 288.108542 
L 275.434849 280.093382 
L 284.428494 271.203779 
L 292.556916 261.516703 
L 299.749736 251.116028 
L 305.944676 240.091809 
L 311.088097 228.539497 
L 315.135464 216.559117 
L 318.051736 204.2544 
L 319.81166 191.731886 
L 320.4 179.1 
L 319.81166 166.468114 
L 318.051736 153.9456 
L 315.135464 141.640883 
L 311.088097 129.660503 
L 305.944676 118.108191 
L 299.749736 107.083972 
L 292.556916 96.683297 
L 284.428494 86.996221 
L 275.434849 78.106618 
L 265.653853 70.091458 
L 255.170192 63.02014 
L 244.074639 56.953889 
L 232.463264 51.945231 
L 220.436603 48.037532 
L 208.098787 45.264626 
" style="fill:none;stroke:#cccccc;stroke-linecap:round;stroke-width:1.3;"/>
     </g>
    </g>
   </g>
   <g id="matplotlib.axis_4">
    <g id="ytick_1">
     <g id="line2d_20">
      <path clip-path="url(#p06d89b4201)" d="M 160.901213 312.935374 
L 161.240632 311.737028 
L 161.822639 310.582922 
L 162.63519 309.482895 
L 163.664672 308.445522 
L 164.896181 307.478202 
L 166.31375 306.58725 
L 167.90056 305.778003 
L 169.63911 305.054923 
L 171.511359 304.421694 
L 173.498844 303.881313 
L 175.582778 303.436174 
L 177.74413 303.088138 
L 179.963689 302.838591 
L 182.222117 302.68849 
L 184.5 302.638394 
L 186.777883 302.68849 
L 189.036311 302.838591 
L 191.25587 303.088138 
L 193.417222 303.436174 
L 195.501156 303.881313 
L 197.488641 304.421694 
L 199.36089 305.054923 
L 201.09944 305.778003 
L 202.68625 306.58725 
L 204.103819 307.478202 
L 205.335328 308.445522 
L 206.36481 309.482895 
L 207.177361 310.582922 
L 207.759368 311.737028 
L 208.098787 312.935374 
" style="fill:none;stroke:#cccccc;stroke-linecap:round;stroke-width:1.3;"/>
     </g>
    </g>
    <g id="ytick_2">
     <g id="line2d_21">
      <path clip-path="url(#p06d89b4201)" d="M 138.019463 306.804227 
L 139.07888 304.5809 
L 140.570273 302.492351 
L 142.460188 300.547499 
L 144.715119 298.752571 
L 147.30184 297.11167 
L 150.187603 295.627264 
L 153.340242 294.300602 
L 156.728218 293.132063 
L 160.320608 292.121437 
L 164.087065 291.268155 
L 167.99776 290.571471 
L 172.023304 290.030602 
L 176.134667 289.644838 
L 180.303091 289.413619 
L 184.5 289.336586 
L 188.696909 289.413619 
L 192.865333 289.644838 
L 196.976696 290.030602 
L 201.00224 290.571471 
L 204.912935 291.268155 
L 208.679392 292.121437 
L 212.271782 293.132063 
L 215.659758 294.300602 
L 218.812397 295.627264 
L 221.69816 297.11167 
L 224.284881 298.752571 
L 226.539812 300.547499 
L 228.429727 302.492351 
L 229.92112 304.5809 
L 230.980537 306.804227 
" style="fill:none;stroke:#cccccc;stroke-linecap:round;stroke-width:1.3;"/>
     </g>
    </g>
    <g id="ytick_3">
     <g id="line2d_22">
      <path clip-path="url(#p06d89b4201)" d="M 116.55 296.792852 
L 118.621848 293.832824 
L 121.241629 291.114498 
L 124.35532 288.634649 
L 127.912522 286.387914 
L 131.866156 284.367687 
L 136.172093 282.566789 
L 140.788772 280.977944 
L 145.676831 279.594135 
L 150.798754 278.408839 
L 156.118559 277.416196 
L 161.601509 276.61113 
L 167.213859 275.989413 
L 172.922621 275.547723 
L 178.69536 275.283669 
L 184.5 275.195812 
L 190.30464 275.283669 
L 196.077379 275.547723 
L 201.786141 275.989413 
L 207.398491 276.61113 
L 212.881441 277.416196 
L 218.201246 278.408839 
L 223.323169 279.594135 
L 228.211228 280.977944 
L 232.827907 282.566789 
L 237.133844 284.367687 
L 241.087478 286.387914 
L 244.64468 288.634649 
L 247.758371 291.114498 
L 250.378152 293.832824 
L 252.45 296.792852 
" style="fill:none;stroke:#cccccc;stroke-linecap:round;stroke-width:1.3;"/>
     </g>
    </g>
    <g id="ytick_4">
     <g id="line2d_23">
      <path clip-path="url(#p06d89b4201)" d="M 97.145164 283.20544 
L 100.402999 279.874959 
L 104.248496 276.876673 
L 108.615987 274.189034 
L 113.44692 271.791352 
L 118.688551 269.664353 
L 124.292834 267.790481 
L 130.215497 266.154029 
L 136.415288 264.741171 
L 142.853346 263.539937 
L 149.492699 262.540153 
L 156.297846 261.733367 
L 163.23441 261.11278 
L 170.268856 260.673179 
L 177.368239 260.41088 
L 184.5 260.32369 
L 191.631761 260.41088 
L 198.731144 260.673179 
L 205.76559 261.11278 
L 212.702154 261.733367 
L 219.507301 262.540153 
L 226.146654 263.539937 
L 232.584712 264.741171 
L 238.784503 266.154029 
L 244.707166 267.790481 
L 250.311449 269.664353 
L 255.55308 271.791352 
L 260.384013 274.189034 
L 264.751504 276.876673 
L 268.597001 279.874959 
L 271.854836 283.20544 
" style="fill:none;stroke:#cccccc;stroke-linecap:round;stroke-width:1.3;"/>
     </g>
    </g>
    <g id="ytick_5">
     <g id="line2d_24">
      <path clip-path="url(#p06d89b4201)" d="M 80.39456 266.454836 
L 84.876653 263.154372 
L 89.922987 260.232476 
L 95.468452 257.650894 
L 101.456343 255.376338 
L 107.836353 253.380082 
L 114.563049 251.637499 
L 121.594711 250.127615 
L 128.892442 248.832697 
L 136.419491 247.737886 
L 144.140734 246.83089 
L 152.022267 246.101719 
L 160.03109 245.542472 
L 168.134864 245.147174 
L 176.301701 244.911644 
L 184.5 244.833406 
L 192.698299 244.911644 
L 200.865136 245.147174 
L 208.96891 245.542472 
L 216.977733 246.101719 
L 224.859266 246.83089 
L 232.580509 247.737886 
L 240.107558 248.832697 
L 247.405289 250.127615 
L 254.436951 251.637499 
L 261.163647 253.380082 
L 267.543657 255.376338 
L 273.531548 257.650894 
L 279.077013 260.232476 
L 284.123347 263.154372 
L 288.60544 266.454836 
" style="fill:none;stroke:#cccccc;stroke-linecap:round;stroke-width:1.3;"/>
     </g>
    </g>
    <g id="ytick_6">
     <g id="line2d_25">
      <path clip-path="url(#p06d89b4201)" d="M 66.807148 247.05 
L 72.415189 244.168649 
L 78.525098 241.65154 
L 85.082586 239.452534 
L 92.040258 237.533498 
L 99.355676 235.862882 
L 106.98999 234.414568 
L 114.906943 233.166945 
L 123.072158 232.10218 
L 131.452619 231.205628 
L 140.016283 230.465372 
L 148.731809 229.871857 
L 157.568347 229.417611 
L 166.49539 229.097027 
L 175.482656 228.906206 
L 184.5 228.842852 
L 193.517344 228.906206 
L 202.50461 229.097027 
L 211.431653 229.417611 
L 220.268191 229.871857 
L 228.983717 230.465372 
L 237.547381 231.205628 
L 245.927842 232.10218 
L 254.093057 233.166945 
L 262.01001 234.414568 
L 269.644324 235.862882 
L 276.959742 237.533498 
L 283.917414 239.452534 
L 290.474902 241.65154 
L 296.584811 244.168649 
L 302.192852 247.05 
" style="fill:none;stroke:#cccccc;stroke-linecap:round;stroke-width:1.3;"/>
     </g>
    </g>
    <g id="ytick_7">
     <g id="line2d_26">
      <path clip-path="url(#p06d89b4201)" d="M 56.795773 225.580537 
L 63.307977 223.453261 
L 70.249547 221.61277 
L 77.581558 220.017789 
L 85.268667 218.635254 
L 93.277926 217.438505 
L 101.577985 216.405947 
L 110.138541 215.520031 
L 118.929964 214.766492 
L 127.923043 214.133761 
L 137.08881 213.612524 
L 146.398427 213.195375 
L 155.823116 212.876563 
L 165.334118 212.651796 
L 174.90267 212.518099 
L 184.5 212.473725 
L 194.09733 212.518099 
L 203.665882 212.651796 
L 213.176884 212.876563 
L 222.601573 213.195375 
L 231.91119 213.612524 
L 241.076957 214.133761 
L 250.070036 214.766492 
L 258.861459 215.520031 
L 267.422015 216.405947 
L 275.722074 217.438505 
L 283.731333 218.635254 
L 291.418442 220.017789 
L 298.750453 221.61277 
L 305.692023 223.453261 
L 312.204227 225.580537 
" style="fill:none;stroke:#cccccc;stroke-linecap:round;stroke-width:1.3;"/>
     </g>
    </g>
    <g id="ytick_8">
     <g id="line2d_27">
      <path clip-path="url(#p06d89b4201)" d="M 50.664626 202.698787 
L 57.761304 201.570548 
L 65.231353 200.600109 
L 73.048793 199.763183 
L 81.188035 199.040646 
L 89.623564 198.417303 
L 98.329746 197.880991 
L 107.280718 197.421924 
L 116.450322 197.032216 
L 125.812089 196.705515 
L 135.339237 196.436738 
L 145.004691 196.221862 
L 154.78112 196.057774 
L 164.640976 195.942159 
L 174.556546 195.873415 
L 184.5 195.850604 
L 194.443454 195.873415 
L 204.359024 195.942159 
L 214.21888 196.057774 
L 223.995309 196.221862 
L 233.660763 196.436738 
L 243.187911 196.705515 
L 252.549678 197.032216 
L 261.719282 197.421924 
L 270.670254 197.880991 
L 279.376436 198.417303 
L 287.811965 199.040646 
L 295.951207 199.763183 
L 303.768647 200.600109 
L 311.238696 201.570548 
L 318.335374 202.698787 
" style="fill:none;stroke:#cccccc;stroke-linecap:round;stroke-width:1.3;"/>
     </g>
    </g>
    <g id="ytick_9">
     <g id="line2d_28">
      <path clip-path="url(#p06d89b4201)" d="M 48.6 179.1 
L 55.898703 179.1 
L 63.549893 179.1 
L 71.532598 179.1 
L 79.82494 179.1 
L 88.404188 179.1 
L 97.246829 179.1 
L 106.328624 179.1 
L 115.624682 179.1 
L 125.109522 179.1 
L 134.757148 179.1 
L 144.541115 179.1 
L 154.434606 179.1 
L 164.410505 179.1 
L 174.441468 179.1 
L 184.5 179.1 
L 194.558532 179.1 
L 204.589495 179.1 
L 214.565394 179.1 
L 224.458885 179.1 
L 234.242852 179.1 
L 243.890478 179.1 
L 253.375318 179.1 
L 262.671376 179.1 
L 271.753171 179.1 
L 280.595812 179.1 
L 289.17506 179.1 
L 297.467402 179.1 
L 305.450107 179.1 
L 313.101297 179.1 
L 320.4 179.1 
" style="fill:none;stroke:#cccccc;stroke-linecap:round;stroke-width:1.3;"/>
     </g>
    </g>
    <g id="ytick_10">
     <g id="line2d_29">
      <path clip-path="url(#p06d89b4201)" d="M 50.664626 155.501213 
L 57.761304 156.629452 
L 65.231353 157.599891 
L 73.048793 158.436817 
L 81.188035 159.159354 
L 89.623564 159.782697 
L 98.329746 160.319009 
L 107.280718 160.778076 
L 116.450322 161.167784 
L 125.812089 161.494485 
L 135.339237 161.763262 
L 145.004691 161.978138 
L 154.78112 162.142226 
L 164.640976 162.257841 
L 174.556546 162.326585 
L 184.5 162.349396 
L 194.443454 162.326585 
L 204.359024 162.257841 
L 214.21888 162.142226 
L 223.995309 161.978138 
L 233.660763 161.763262 
L 243.187911 161.494485 
L 252.549678 161.167784 
L 261.719282 160.778076 
L 270.670254 160.319009 
L 279.376436 159.782697 
L 287.811965 159.159354 
L 295.951207 158.436817 
L 303.768647 157.599891 
L 311.238696 156.629452 
L 318.335374 155.501213 
" style="fill:none;stroke:#cccccc;stroke-linecap:round;stroke-width:1.3;"/>
     </g>
    </g>
    <g id="ytick_11">
     <g id="line2d_30">
      <path clip-path="url(#p06d89b4201)" d="M 56.795773 132.619463 
L 63.307977 134.746739 
L 70.249547 136.58723 
L 77.581558 138.182211 
L 85.268667 139.564746 
L 93.277926 140.761495 
L 101.577985 141.794053 
L 110.138541 142.679969 
L 118.929964 143.433508 
L 127.923043 144.066239 
L 137.08881 144.587476 
L 146.398427 145.004625 
L 155.823116 145.323437 
L 165.334118 145.548204 
L 174.90267 145.681901 
L 184.5 145.726275 
L 194.09733 145.681901 
L 203.665882 145.548204 
L 213.176884 145.323437 
L 222.601573 145.004625 
L 231.91119 144.587476 
L 241.076957 144.066239 
L 250.070036 143.433508 
L 258.861459 142.679969 
L 267.422015 141.794053 
L 275.722074 140.761495 
L 283.731333 139.564746 
L 291.418442 138.182211 
L 298.750453 136.58723 
L 305.692023 134.746739 
L 312.204227 132.619463 
" style="fill:none;stroke:#cccccc;stroke-linecap:round;stroke-width:1.3;"/>
     </g>
    </g>
    <g id="ytick_12">
     <g id="line2d_31">
      <path clip-path="url(#p06d89b4201)" d="M 66.807148 111.15 
L 72.415189 114.031351 
L 78.525098 116.54846 
L 85.082586 118.747466 
L 92.040258 120.666502 
L 99.355676 122.337118 
L 106.98999 123.785432 
L 114.906943 125.033055 
L 123.072158 126.09782 
L 131.452619 126.994372 
L 140.016283 127.734628 
L 148.731809 128.328143 
L 157.568347 128.782389 
L 166.49539 129.102973 
L 175.482656 129.293794 
L 184.5 129.357148 
L 193.517344 129.293794 
L 202.50461 129.102973 
L 211.431653 128.782389 
L 220.268191 128.328143 
L 228.983717 127.734628 
L 237.547381 126.994372 
L 245.927842 126.09782 
L 254.093057 125.033055 
L 262.01001 123.785432 
L 269.644324 122.337118 
L 276.959742 120.666502 
L 283.917414 118.747466 
L 290.474902 116.54846 
L 296.584811 114.031351 
L 302.192852 111.15 
" style="fill:none;stroke:#cccccc;stroke-linecap:round;stroke-width:1.3;"/>
     </g>
    </g>
    <g id="ytick_13">
     <g id="line2d_32">
      <path clip-path="url(#p06d89b4201)" d="M 80.39456 91.745164 
L 84.876653 95.045628 
L 89.922987 97.967524 
L 95.468452 100.549106 
L 101.456343 102.823662 
L 107.836353 104.819918 
L 114.563049 106.562501 
L 121.594711 108.072385 
L 128.892442 109.367303 
L 136.419491 110.462114 
L 144.140734 111.36911 
L 152.022267 112.098281 
L 160.03109 112.657528 
L 168.134864 113.052826 
L 176.301701 113.288356 
L 184.5 113.366594 
L 192.698299 113.288356 
L 200.865136 113.052826 
L 208.96891 112.657528 
L 216.977733 112.098281 
L 224.859266 111.36911 
L 232.580509 110.462114 
L 240.107558 109.367303 
L 247.405289 108.072385 
L 254.436951 106.562501 
L 261.163647 104.819918 
L 267.543657 102.823662 
L 273.531548 100.549106 
L 279.077013 97.967524 
L 284.123347 95.045628 
L 288.60544 91.745164 
" style="fill:none;stroke:#cccccc;stroke-linecap:round;stroke-width:1.3;"/>
     </g>
    </g>
    <g id="ytick_14">
     <g id="line2d_33">
      <path clip-path="url(#p06d89b4201)" d="M 97.145164 74.99456 
L 100.402999 78.325041 
L 104.248496 81.323327 
L 108.615987 84.010966 
L 113.44692 86.408648 
L 118.688551 88.535647 
L 124.292834 90.409519 
L 130.215497 92.045971 
L 136.415288 93.458829 
L 142.853346 94.660063 
L 149.492699 95.659847 
L 156.297846 96.466633 
L 163.23441 97.08722 
L 170.268856 97.526821 
L 177.368239 97.78912 
L 184.5 97.87631 
L 191.631761 97.78912 
L 198.731144 97.526821 
L 205.76559 97.08722 
L 212.702154 96.466633 
L 219.507301 95.659847 
L 226.146654 94.660063 
L 232.584712 93.458829 
L 238.784503 92.045971 
L 244.707166 90.409519 
L 250.311449 88.535647 
L 255.55308 86.408648 
L 260.384013 84.010966 
L 264.751504 81.323327 
L 268.597001 78.325041 
L 271.854836 74.99456 
" style="fill:none;stroke:#cccccc;stroke-linecap:round;stroke-width:1.3;"/>
     </g>
    </g>
    <g id="ytick_15">
     <g id="line2d_34">
      <path clip-path="url(#p06d89b4201)" d="M 116.55 61.407148 
L 118.621848 64.367176 
L 121.241629 67.085502 
L 124.35532 69.565351 
L 127.912522 71.812086 
L 131.866156 73.832313 
L 136.172093 75.633211 
L 140.788772 77.222056 
L 145.676831 78.605865 
L 150.798754 79.791161 
L 156.118559 80.783804 
L 161.601509 81.58887 
L 167.213859 82.210587 
L 172.922621 82.652277 
L 178.69536 82.916331 
L 184.5 83.004188 
L 190.30464 82.916331 
L 196.077379 82.652277 
L 201.786141 82.210587 
L 207.398491 81.58887 
L 212.881441 80.783804 
L 218.201246 79.791161 
L 223.323169 78.605865 
L 228.211228 77.222056 
L 232.827907 75.633211 
L 237.133844 73.832313 
L 241.087478 71.812086 
L 244.64468 69.565351 
L 247.758371 67.085502 
L 250.378152 64.367176 
L 252.45 61.407148 
" style="fill:none;stroke:#cccccc;stroke-linecap:round;stroke-width:1.3;"/>
     </g>
    </g>
    <g id="ytick_16">
     <g id="line2d_35">
      <path clip-path="url(#p06d89b4201)" d="M 138.019463 51.395773 
L 139.07888 53.6191 
L 140.570273 55.707649 
L 142.460188 57.652501 
L 144.715119 59.447429 
L 147.30184 61.08833 
L 150.187603 62.572736 
L 153.340242 63.899398 
L 156.728218 65.067937 
L 160.320608 66.078563 
L 164.087065 66.931845 
L 167.99776 67.628529 
L 172.023304 68.169398 
L 176.134667 68.555162 
L 180.303091 68.786381 
L 184.5 68.863414 
L 188.696909 68.786381 
L 192.865333 68.555162 
L 196.976696 68.169398 
L 201.00224 67.628529 
L 204.912935 66.931845 
L 208.679392 66.078563 
L 212.271782 65.067937 
L 215.659758 63.899398 
L 218.812397 62.572736 
L 221.69816 61.08833 
L 224.284881 59.447429 
L 226.539812 57.652501 
L 228.429727 55.707649 
L 229.92112 53.6191 
L 230.980537 51.395773 
" style="fill:none;stroke:#cccccc;stroke-linecap:round;stroke-width:1.3;"/>
     </g>
    </g>
    <g id="ytick_17">
     <g id="line2d_36">
      <path clip-path="url(#p06d89b4201)" d="M 160.901213 45.264626 
L 161.240632 46.462972 
L 161.822639 47.617078 
L 162.63519 48.717105 
L 163.664672 49.754478 
L 164.896181 50.721798 
L 166.31375 51.61275 
L 167.90056 52.421997 
L 169.63911 53.145077 
L 171.511359 53.778306 
L 173.498844 54.318687 
L 175.582778 54.763826 
L 177.74413 55.111862 
L 179.963689 55.361409 
L 182.222117 55.51151 
L 184.5 55.561606 
L 186.777883 55.51151 
L 189.036311 55.361409 
L 191.25587 55.111862 
L 193.417222 54.763826 
L 195.501156 54.318687 
L 197.488641 53.778306 
L 199.36089 53.145077 
L 201.09944 52.421997 
L 202.68625 51.61275 
L 204.103819 50.721798 
L 205.335328 49.754478 
L 206.36481 48.717105 
L 207.177361 47.617078 
L 207.759368 46.462972 
L 208.098787 45.264626 
" style="fill:none;stroke:#cccccc;stroke-linecap:round;stroke-width:1.3;"/>
     </g>
    </g>
   </g>
   <g id="LineCollection_1">
    <path clip-path="url(#p06d89b4201)" d="M 64.710488 114.918361 
L 66.410694 115.797439 
L 68.159462 116.640524 
L 69.955102 117.449196 
L 71.796013 118.224941 
L 73.680668 118.969155 
L 75.607609 119.683155 
L 77.575442 120.36818 
L 79.582826 121.025397 
L 81.628475 121.655906 
L 83.711146 122.260742 
L 84.393054 126.301507 
L 86.589713 126.830142 
L 87.557637 130.773742 
L 88.723023 134.668971 
L 91.090727 135.08038 
L 92.505337 138.880172 
L 94.962486 139.230545 
L 97.44611 139.565574 
L 99.144631 143.234248 
L 100.997265 146.856652 
L 102.994488 150.432903 
L 102.447123 153.776249 
L 104.666288 157.293729 
L 104.27147 160.633115 
L 103.942474 163.98022 
L 103.67929 167.333634 
L 103.481909 170.691952 
L 103.350325 174.053771 
L 103.284534 177.41769 
L 100.531477 180.795063 
L 100.599889 184.184459 
L 100.736715 187.571669 
L 100.941956 190.955232 
L 98.51021 194.453188 
L 98.865523 197.851057 
L 96.638119 201.41993 
L 97.154247 204.825935 
L 100.357767 207.988234 
L 100.997265 211.343348 
L 104.294546 214.414888 
L 105.047256 217.716346 
L 105.868432 221.000839 
L 106.758084 224.266852 
L 105.260045 227.869206 
L 103.933683 231.506939 
L 101.56809 231.918586 
L 99.229784 232.34888 
L 96.919752 232.798431 
L 94.638998 233.267887 
L 92.38855 233.757934 
L 88.81923 230.863174 
L 86.589713 231.369858 
L 84.393054 231.898493 
L 83.711146 235.939258 
L 83.252602 240.023023 
L 83.027772 244.144806 
L 81.121195 244.858706 
L 81.236362 249.067101 
L 79.46984 249.866907 
L 77.748773 250.699073 
L 76.074833 251.564867 
L 74.449772 252.465624 
L 72.875433 253.402753 
L 71.353757 254.377737 
" style="fill:none;stroke:#08306b;stroke-width:2.275;"/>
    <path clip-path="url(#p06d89b4201)" d="M 304.289512 243.281639 
L 302.589306 242.402561 
L 300.840538 241.559476 
L 300.860251 237.032032 
L 298.96841 236.292211 
L 298.639236 231.888728 
L 298.069102 227.545997 
L 297.269845 223.268345 
L 298.46707 219.537956 
L 299.557361 215.777479 
L 300.540169 211.989779 
L 299.112428 207.825359 
L 299.855539 204.03648 
L 298.116224 199.979367 
L 296.208511 196.005323 
L 296.608193 192.25997 
L 294.433937 188.400646 
L 292.119366 184.622102 
L 292.213143 180.941067 
L 289.674681 177.278264 
L 289.583919 173.635839 
L 289.402416 169.996556 
L 291.650597 166.227938 
L 291.275725 162.563419 
L 293.272623 158.689551 
L 295.110317 154.739367 
L 296.777889 150.711755 
L 299.112428 150.374641 
L 300.540169 146.210221 
L 302.782798 145.796471 
L 303.946754 141.486373 
L 304.894396 137.093141 
L 303.584801 133.235295 
L 302.159932 129.41625 
L 300.620777 125.639317 
L 298.96841 121.907789 
L 299.044898 117.449196 
L 298.857245 112.942618 
L 298.394459 108.396801 
L 297.646243 103.822263 
" style="fill:none;stroke:#08306b;stroke-width:2.275;"/>
   </g>
   <g id="LineCollection_2">
    <path clip-path="url(#p06d89b4201)" d="M 56.737251 132.780565 
L 59.427214 131.370498 
L 59.540223 131.333501 
L 61.88615 130.676045 
L 64.154477 130.554843 
L 66.270192 130.902246 
L 68.261543 131.65654 
L 70.146379 132.7952 
L 71.933365 134.332598 
L 72.678518 135.161123 
L 73.656656 136.219798 
L 75.320411 138.505854 
L 76.12491 139.820573 
L 76.949519 141.191087 
L 78.606169 144.06302 
L 78.619711 144.085461 
L 80.466929 146.657344 
L 81.91032 148.257498 
L 82.483695 148.834952 
L 84.652793 150.588131 
L 86.879849 152.321702 
L 87.039306 152.467642 
L 89.07065 154.59647 
L 90.160037 156.297769 
L 91.09317 158.5779 
L 91.483377 159.905626 
L 91.983326 163.429486 
L 92.130594 166.922345 
L 92.126025 170.403951 
L 92.043437 173.881916 
L 91.854646 177.359725 
L 91.47795 180.842426 
L 90.812981 184.339303 
L 89.942052 187.250638 
L 89.782167 187.864332 
L 88.54397 191.426679 
L 87.749504 193.299447 
L 87.099765 195.037867 
L 85.706565 198.324582 
L 85.565126 198.70305 
L 84.072742 202.420504 
L 83.824498 203.016317 
L 82.468243 206.21215 
L 82.034406 207.16256 
L 80.550211 210.120861 
L 80.268942 210.672772 
L 78.550663 213.840541 
L 78.357187 214.176799 
L 76.953791 217.02426 
L 76.268922 218.351746 
L 75.497785 220.276176 
L 74.585559 222.59497 
L 74.248337 223.767026 
L 73.348013 226.88202 
L 73.219556 227.466965 
L 72.277074 230.986546 
L 72.14197 231.31924 
L 71.203205 233.864461 
L 69.804796 235.797463 
L 68.016071 236.767862 
L 65.708653 236.567975 
L 62.753181 234.729929 
L 62.62715 234.620468 
L 59.84547 231.317573 
L 57.623181 227.572651 
L 57.241533 226.787446 
" style="fill:none;stroke:#08519c;stroke-width:2.275;"/>
    <path clip-path="url(#p06d89b4201)" d="M 312.262749 225.419435 
L 311.710575 223.136715 
L 311.543766 221.20027 
L 311.402658 218.600613 
L 311.805936 214.354148 
L 312.57473 210.228757 
L 313.461646 206.134925 
L 314.279634 202.025653 
L 314.77965 197.868157 
L 314.771644 197.490185 
L 314.070103 193.596934 
L 313.152934 192.159711 
L 311.069533 190.030861 
L 310.284613 189.196819 
L 308.913914 187.995861 
L 306.72044 185.44521 
L 306.429049 185.019917 
L 304.472923 181.826509 
L 304.071905 181.047609 
L 302.70362 177.16624 
L 302.183002 173.312382 
L 302.561576 169.429086 
L 303.858035 165.777034 
L 303.994101 165.444597 
L 305.871562 162.566264 
L 306.878313 161.233444 
L 307.879233 160.087261 
L 309.859169 157.93413 
L 310.939293 156.672198 
L 311.746436 155.638841 
L 313.440197 152.72695 
L 313.692476 152.022224 
L 314.564606 147.757986 
L 314.58135 147.527733 
L 314.372853 143.188478 
L 313.658215 138.937176 
L 312.637676 134.750622 
L 311.758467 131.412554 
" style="fill:none;stroke:#08519c;stroke-width:2.275;"/>
   </g>
   <g id="LineCollection_3">
    <path clip-path="url(#p06d89b4201)" d="M 48.612571 177.251583 
L 48.728843 176.945586 
L 50.302948 172.705756 
L 51.104969 169.60924 
L 51.343329 168.507921 
L 51.817331 164.293375 
L 51.965088 161.138013 
L 52.021885 160.043732 
L 52.222162 155.769416 
L 52.749131 151.526997 
L 53.797031 147.384706 
L 55.459084 143.714736 
L 55.599161 143.443672 
L 58.717572 139.910855 
L 58.752015 139.885141 
L 61.34639 138.687028 
L 63.641836 138.557455 
L 65.713461 139.243432 
L 67.612475 140.625699 
L 69.117888 142.357007 
L 69.374259 142.672421 
L 71.047139 145.334398 
L 71.840981 146.790214 
L 72.710725 148.44029 
L 74.078558 150.966416 
L 74.463404 151.656554 
L 76.366699 154.665202 
L 76.656781 155.046363 
L 78.412423 157.409353 
L 79.799866 159.045324 
L 80.557393 160.073727 
L 82.584927 162.889025 
L 82.738706 163.169592 
L 84.285978 166.581176 
L 84.847246 168.468113 
L 85.251737 170.193828 
L 85.80696 173.768555 
L 86.033299 177.324537 
L 85.897896 180.876333 
L 85.376886 184.439821 
L 84.684498 187.115883 
L 84.495004 188.031212 
L 83.421073 191.660025 
L 82.613666 193.829545 
L 82.150848 195.338662 
L 80.710325 199.079492 
L 80.69174 199.122599 
L 79.117755 202.896628 
L 78.845982 203.473824 
L 77.140072 206.837561 
L 77.024329 207.060311 
L 75.237522 210.20494 
L 74.735819 210.950928 
L 73.499954 213.094156 
L 72.040054 215.27313 
L 71.798629 215.743534 
L 70.211508 218.46994 
L 69.268773 219.824595 
L 68.669961 221.039464 
L 67.089416 223.234346 
L 65.232844 224.449478 
L 62.722525 223.706172 
L 61.130375 221.939376 
L 58.76066 218.343578 
L 58.730675 218.285566 
L 56.807405 214.449829 
L 54.934989 210.555538 
L 54.046398 208.752173 
L 52.98597 206.625532 
L 50.936938 202.650972 
L 50.500714 201.749535 
" style="fill:none;stroke:#2171b5;stroke-width:2.275;"/>
    <path clip-path="url(#p06d89b4201)" d="M 320.387429 180.948417 
L 318.217512 177.518669 
L 317.570941 176.986662 
L 315.95254 174.823026 
L 314.395278 172.890155 
L 314.447282 168.735871 
L 315.454196 166.705018 
L 316.088616 164.405359 
L 317.157996 162.086932 
L 317.626407 159.955183 
L 318.499286 156.450465 
" style="fill:none;stroke:#2171b5;stroke-width:2.275;"/>
   </g>
   <g id="LineCollection_4">
    <path clip-path="url(#p06d89b4201)" d="M 54.60375 202.043903 
L 52.946737 198.032828 
L 51.770733 193.911473 
L 51.216825 189.701495 
L 51.360908 185.4468 
L 52.159683 181.202758 
L 52.982543 178.309303 
L 53.310635 177.013477 
L 54.39451 172.881647 
L 55.341085 168.788823 
L 55.982172 164.704919 
L 55.982727 164.701864 
L 55.983384 164.693509 
L 56.363764 160.595895 
L 56.74909 156.482278 
L 57.540566 152.424938 
L 58.177378 150.855203 
L 59.568717 148.614933 
L 61.218159 147.39951 
L 63.490343 147.478444 
L 65.469922 148.955156 
L 66.081672 149.780772 
L 67.27601 151.501005 
L 68.810228 154.120395 
L 69.076231 154.541855 
L 70.959096 157.725529 
L 71.279695 158.261001 
L 72.954291 160.891213 
L 73.829652 162.275774 
L 75.038768 164.226791 
L 76.198478 166.16394 
L 77.198333 168.046806 
L 78.171133 169.942857 
L 79.436991 173.102611 
L 79.642745 173.640864 
L 80.630818 177.287798 
L 81.052573 180.909179 
L 80.981308 184.529957 
L 80.499021 188.170361 
L 79.806946 191.097247 
L 79.672122 191.847777 
L 78.623105 195.573705 
L 77.937313 197.391122 
L 77.214901 199.376681 
L 76.084609 201.849452 
L 75.343389 203.29688 
L 74.223643 205.300908 
L 72.772441 207.411553 
L 72.344871 208.076497 
L 70.462518 210.431558 
L 68.898972 211.911574 
L 68.545085 212.33663 
L 66.58328 213.840287 
L 64.431437 214.45991 
L 61.866656 213.407407 
L 61.764619 213.303351 
L 58.74289 209.74852 
L 58.693821 209.682572 
L 56.524051 205.95516 
L 55.115864 203.11638 
L 54.60375 202.043903 
" style="fill:none;stroke:#4292c6;stroke-width:2.275;"/>
   </g>
   <g id="LineCollection_5">
    <path clip-path="url(#p06d89b4201)" d="M 55.918656 197.657645 
L 54.792957 193.609997 
L 54.31359 189.480418 
L 54.490637 185.314456 
L 55.237555 181.26865 
L 55.258347 181.160192 
L 56.354077 177.054023 
L 57.622233 173.154225 
L 57.681788 173.009333 
L 59.199009 169.032368 
L 60.445625 165.777272 
L 60.912923 165.129053 
L 63.16704 162.249794 
L 65.50821 162.413816 
L 67.722704 163.946421 
L 69.350307 165.746478 
L 69.910804 166.269025 
L 72.120151 169.278838 
L 72.37848 169.70644 
L 74.381236 173.294916 
L 74.493133 173.520293 
L 76.02027 177.25288 
L 76.779756 180.255976 
L 76.951296 180.939782 
L 77.338194 184.611406 
L 77.195672 188.294846 
L 77.101218 188.804212 
L 76.628436 192.011959 
L 75.608526 195.789687 
L 75.327643 196.515439 
L 74.021313 199.6696 
L 73.448193 200.781081 
L 71.558213 203.735326 
L 71.512696 203.803516 
L 69.522956 206.035648 
L 67.450958 207.546116 
L 65.250985 208.250964 
L 62.829248 207.787075 
L 60.037906 205.353977 
L 60.036515 205.352481 
L 57.645284 201.587207 
L 56.792953 199.750932 
L 55.918656 197.657645 
" style="fill:none;stroke:#6caed6;stroke-width:2.275;"/>
   </g>
   <g id="LineCollection_6">
    <path clip-path="url(#p06d89b4201)" d="M 58.687627 197.334944 
L 57.423051 193.36749 
L 56.911145 189.309035 
L 57.108298 185.212145 
L 57.546271 182.919589 
L 57.970639 181.125745 
L 59.416137 177.091639 
L 59.830374 176.096347 
L 61.777648 173.153797 
L 62.29663 172.39451 
L 64.737519 170.992847 
L 67.106198 171.46722 
L 69.383298 173.386047 
L 69.438169 173.432426 
L 71.795528 176.964896 
L 71.92445 177.218724 
L 73.378045 180.968793 
L 74.138487 184.688529 
L 74.260719 188.41334 
L 73.778356 192.176159 
L 72.758138 195.725487 
L 72.658158 196.01588 
L 70.815573 199.520437 
L 70.418204 200.027327 
L 68.766865 201.861293 
L 66.604274 203.158782 
L 64.276826 203.315101 
L 61.698806 201.865685 
L 61.044582 201.120319 
L 58.724578 197.412573 
L 58.687627 197.334944 
" style="fill:none;stroke:#9fcae1;stroke-width:2.275;"/>
   </g>
   <g id="LineCollection_7">
    <path clip-path="url(#p06d89b4201)" d="M 60.245343 193.125599 
L 59.604235 189.143457 
L 59.857986 185.112025 
L 59.918129 184.853148 
L 61.275141 181.08693 
L 62.134089 179.509042 
L 64.508132 177.622997 
L 66.901588 178.00042 
L 69.332098 180.622413 
L 69.539008 181.002684 
L 70.833188 184.77425 
L 71.199468 188.545594 
L 70.681627 192.367106 
L 70.110983 193.953169 
L 68.79995 196.336137 
L 68.081798 197.240694 
L 65.855947 198.439087 
L 63.427452 197.944721 
L 62.365245 196.94166 
L 60.615643 194.063804 
L 60.245343 193.125599 
" style="fill:none;stroke:#c7dbef;stroke-width:2.275;"/>
   </g>
   <g id="LineCollection_8">
    <path clip-path="url(#p06d89b4201)" d="M 64.418912 188.874507 
L 64.759615 187.575928 
L 65.728756 188.806739 
L 64.91366 189.797993 
L 64.418912 188.874507 
" style="fill:none;stroke:#dfebf7;stroke-width:2.275;"/>
   </g>
   <g id="LineCollection_9"/>
   <g id="patch_3">
    <path d="M 184.5 315 
C 220.541101 315 255.110904 300.680719 280.595812 275.195812 
C 306.080719 249.710904 320.4 215.141101 320.4 179.1 
C 320.4 143.058899 306.080719 108.489096 280.595812 83.004188 
C 255.110904 57.519281 220.541101 43.2 184.5 43.2 
C 148.458899 43.2 113.889096 57.519281 88.404188 83.004188 
C 62.919281 108.489096 48.6 143.058899 48.6 179.1 
C 48.6 215.141101 62.919281 249.710904 88.404188 275.195812 
C 113.889096 300.680719 148.458899 315 184.5 315 
z
" style="fill:none;stroke:#262626;stroke-linecap:square;stroke-linejoin:miter;stroke-width:1.25;"/>
   </g>
   <g id="text_9">
    <!-- kappa = 30 -->
    <defs>
     <path d="M 39.84375 0 
L 21.96875 24.125 
L 15.53125 18.796875 
L 15.53125 0 
L 6.734375 0 
L 6.734375 72.46875 
L 15.53125 72.46875 
L 15.53125 27.203125 
L 38.71875 52.828125 
L 49.03125 52.828125 
L 27.59375 30.125 
L 50.140625 0 
z
" id="LiberationSans-107"/>
     <path d="M 20.21875 -0.984375 
Q 12.25 -0.984375 8.25 3.21875 
Q 4.25 7.421875 4.25 14.75 
Q 4.25 19.96875 6.21875 23.3125 
Q 8.203125 26.65625 11.390625 28.5625 
Q 14.59375 30.46875 18.6875 31.203125 
Q 22.796875 31.9375 27.046875 32.03125 
L 38.921875 32.234375 
L 38.921875 35.109375 
Q 38.921875 38.375 38.234375 40.671875 
Q 37.546875 42.96875 36.125 44.375 
Q 34.71875 45.796875 32.59375 46.453125 
Q 30.46875 47.125 27.59375 47.125 
Q 25.046875 47.125 23 46.75 
Q 20.953125 46.390625 19.4375 45.4375 
Q 17.921875 44.484375 16.984375 42.84375 
Q 16.0625 41.21875 15.765625 38.71875 
L 6.59375 39.546875 
Q 7.078125 42.671875 8.4375 45.28125 
Q 9.8125 47.90625 12.328125 49.796875 
Q 14.84375 51.703125 18.625 52.75 
Q 22.40625 53.8125 27.78125 53.8125 
Q 37.75 53.8125 42.765625 49.234375 
Q 47.796875 44.671875 47.796875 36.03125 
L 47.796875 13.28125 
Q 47.796875 9.375 48.828125 7.390625 
Q 49.859375 5.421875 52.734375 5.421875 
Q 53.46875 5.421875 54.203125 5.515625 
Q 54.9375 5.609375 55.609375 5.765625 
L 55.609375 0.296875 
Q 53.953125 -0.09375 52.3125 -0.28125 
Q 50.6875 -0.484375 48.828125 -0.484375 
Q 46.34375 -0.484375 44.5625 0.171875 
Q 42.78125 0.828125 41.65625 2.171875 
Q 40.53125 3.515625 39.9375 5.484375 
Q 39.359375 7.46875 39.203125 10.109375 
L 38.921875 10.109375 
Q 37.5 7.5625 35.8125 5.515625 
Q 34.125 3.46875 31.875 2.03125 
Q 29.640625 0.59375 26.78125 -0.1875 
Q 23.921875 -0.984375 20.21875 -0.984375 
z
M 22.21875 5.609375 
Q 26.421875 5.609375 29.5625 7.140625 
Q 32.71875 8.6875 34.78125 11.078125 
Q 36.859375 13.484375 37.890625 16.3125 
Q 38.921875 19.140625 38.921875 21.734375 
L 38.921875 26.078125 
L 29.296875 25.875 
Q 26.078125 25.828125 23.171875 25.40625 
Q 20.265625 25 18.0625 23.78125 
Q 15.875 22.5625 14.578125 20.359375 
Q 13.28125 18.171875 13.28125 14.59375 
Q 13.28125 10.296875 15.59375 7.953125 
Q 17.921875 5.609375 22.21875 5.609375 
z
" id="LiberationSans-97"/>
     <path d="M 51.421875 26.65625 
Q 51.421875 20.65625 50.4375 15.578125 
Q 49.46875 10.5 47.1875 6.828125 
Q 44.921875 3.171875 41.1875 1.09375 
Q 37.453125 -0.984375 31.984375 -0.984375 
Q 26.3125 -0.984375 22.0625 1.171875 
Q 17.828125 3.328125 15.578125 8.203125 
L 15.328125 8.203125 
Q 15.375 8.109375 15.40625 7.328125 
Q 15.4375 6.546875 15.453125 5.375 
Q 15.484375 4.203125 15.5 2.75 
Q 15.53125 1.3125 15.53125 -0.09375 
L 15.53125 -20.75 
L 6.734375 -20.75 
L 6.734375 42.046875 
Q 6.734375 43.953125 6.703125 45.703125 
Q 6.6875 47.46875 6.640625 48.90625 
Q 6.59375 50.34375 6.546875 51.359375 
Q 6.5 52.390625 6.453125 52.828125 
L 14.9375 52.828125 
Q 14.984375 52.6875 15.0625 51.796875 
Q 15.140625 50.921875 15.203125 49.671875 
Q 15.28125 48.4375 15.359375 47.015625 
Q 15.4375 45.609375 15.4375 44.34375 
L 15.625 44.34375 
Q 16.84375 46.875 18.40625 48.65625 
Q 19.96875 50.4375 21.96875 51.578125 
Q 23.96875 52.734375 26.4375 53.25 
Q 28.90625 53.765625 31.984375 53.765625 
Q 37.453125 53.765625 41.1875 51.8125 
Q 44.921875 49.859375 47.1875 46.3125 
Q 49.46875 42.78125 50.4375 37.765625 
Q 51.421875 32.765625 51.421875 26.65625 
z
M 42.1875 26.46875 
Q 42.1875 31.34375 41.59375 35.15625 
Q 41.015625 38.96875 39.578125 41.59375 
Q 38.140625 44.234375 35.734375 45.59375 
Q 33.34375 46.96875 29.734375 46.96875 
Q 26.8125 46.96875 24.21875 46.140625 
Q 21.625 45.3125 19.703125 42.96875 
Q 17.78125 40.625 16.65625 36.5 
Q 15.53125 32.375 15.53125 25.78125 
Q 15.53125 20.171875 16.453125 16.28125 
Q 17.390625 12.40625 19.171875 10.015625 
Q 20.953125 7.625 23.578125 6.5625 
Q 26.21875 5.515625 29.640625 5.515625 
Q 33.296875 5.515625 35.71875 6.921875 
Q 38.140625 8.34375 39.578125 11.03125 
Q 41.015625 13.71875 41.59375 17.59375 
Q 42.1875 21.484375 42.1875 26.46875 
z
" id="LiberationSans-112"/>
     <path id="LiberationSans-32"/>
     <path d="M 4.890625 41.796875 
L 4.890625 49.03125 
L 53.46875 49.03125 
L 53.46875 41.796875 
z
M 4.890625 16.796875 
L 4.890625 24.03125 
L 53.46875 24.03125 
L 53.46875 16.796875 
z
" id="LiberationSans-61"/>
    </defs>
    <g style="fill:#262626;" transform="translate(145.68525 -17.16)scale(0.156 -0.156)">
     <use xlink:href="#LiberationSans-107"/>
     <use x="50" xlink:href="#LiberationSans-97"/>
     <use x="105.615234" xlink:href="#LiberationSans-112"/>
     <use x="161.230469" xlink:href="#LiberationSans-112"/>
     <use x="216.845703" xlink:href="#LiberationSans-97"/>
     <use x="272.460938" xlink:href="#LiberationSans-32"/>
     <use x="300.244141" xlink:href="#LiberationSans-61"/>
     <use x="358.642578" xlink:href="#LiberationSans-32"/>
     <use x="386.425781" xlink:href="#LiberationSans-51"/>
     <use x="442.041016" xlink:href="#LiberationSans-48"/>
    </g>
   </g>
  </g>
 </g>
 <defs>
  <clipPath id="p06d89b4201">
   <path d="M 184.5 315 
C 220.541101 315 255.110904 300.680719 280.595812 275.195812 
C 306.080719 249.710904 320.4 215.141101 320.4 179.1 
C 320.4 143.058899 306.080719 108.489096 280.595812 83.004188 
C 255.110904 57.519281 220.541101 43.2 184.5 43.2 
C 148.458899 43.2 113.889096 57.519281 88.404188 83.004188 
C 62.919281 108.489096 48.6 143.058899 48.6 179.1 
C 48.6 215.141101 62.919281 249.710904 88.404188 275.195812 
C 113.889096 300.680719 148.458899 315 184.5 315 
z
"/>
  </clipPath>
 </defs>
</svg>
